<svg id="Layer_1" data-name="Layer 1" xmlns="http://www.w3.org/2000/svg" viewBox="0 0 880 96"><defs><style>.cls-1{fill:#ec6608;}.cls-2{fill:#1d1d1b;}.cls-3{fill:#00b2c3;}.cls-4{fill:#a2c62b;}.cls-5{fill:#ed7218;}.cls-6{fill:#272726;}</style></defs><title>header en lg</title><g id="header_en_lg" data-name="header en lg"><g id="Stats_NZ_logo_small" data-name="Stats NZ logo small"><path class="cls-1" d="M100,80a7.94,7.94,0,1,0,7.88,8v-.07A7.91,7.91,0,0,0,100,80h0Zm-.39,11.24H98L96.19,87.8v3.43H94.81V85.51h1.74L98.2,88.9V85.54h1.37Zm5.55-4.48L102.23,90h2.88v1.27h-4.74V90.08l2.95-3.29h-2.87V85.52h4.68Z"/><path class="cls-2" d="M89.78,86.85a6,6,0,0,0-4-1.51c-2.4,0-3.89,1.49-3.89,3.12a3,3,0,0,0,2.32,3l1.7.52c.81.26,1.15.46,1.15,1s-.42.75-1.09.75a5,5,0,0,1-3-1.27l-1.51,2A6.44,6.44,0,0,0,85.87,96c2.74,0,4-1.71,4-3.2,0-1.33-.71-2.45-2.76-3.12l-1.66-.52c-.52-.18-.75-.41-.75-.77s.25-.67,1-.67a3.64,3.64,0,0,1,2.47,1ZM75.29,81.77v3.84H73.73V88h1.56v5.54c0,2,1.47,2.27,2.89,2.27.83,0,2.21-.14,2.21-.14V93.27s-.59.06-1.31.06c-.44,0-.94-.09-.94-.72V88h2.17V85.61H78.12V81.77Zm-18.19,0v3.84H55.54V88H57.1v5.54c0,2,1.46,2.27,2.89,2.27.83,0,2.21-.14,2.21-.14V93.27s-.59.06-1.31.06c-.45,0-1-.09-1-.72V88H62.1V85.61H59.92V81.77Zm-2.08.4A8,8,0,0,0,50,80c-2.71,0-5.11,1.64-5.11,4.35,0,2,1.29,3.35,3.35,4.34l1.08.52c1.46.68,2.4,1.27,2.4,2.33s-.81,1.69-2.12,1.69a5.63,5.63,0,0,1-3.74-1.83l-1.69,2.29A7.56,7.56,0,0,0,49.65,96C53,96,55,93.75,55,91.43s-1.51-3.63-3.91-4.76l-1.28-.59c-1.23-.58-1.66-1.13-1.66-1.83,0-.93.92-1.46,1.92-1.46a5.25,5.25,0,0,1,3.24,1.59Zm14.42,9.2v.75a1.73,1.73,0,0,1-1.94,1.77,1.26,1.26,0,0,1-1.42-1.2c0-.67.52-1.1,1.42-1.1h1.09a1.23,1.23,0,0,0,.87-.22m4.25,4.48V93.44h-.64c-.44,0-.77-.09-.77-.71V89.07c0-2.67-2.08-3.73-4.35-3.73a8.6,8.6,0,0,0-4.3,1.25l1.1,2.14a6.88,6.88,0,0,1,3-.93c1.09,0,1.66.47,1.66,1.19v.11c0,.37-.22.59-.7.59h-2c-2.24,0-3.64,1.2-3.64,3.12A3.28,3.28,0,0,0,66.63,96a3.37,3.37,0,0,0,2.8-1.2l.13-.18c.37,1.22,1.58,1.39,2.75,1.39a6.31,6.31,0,0,0,1.37-.14"/></g><g id="Columns"><rect class="cls-3" x="24" y="31" width="8" height="32" rx="4"/><rect class="cls-4" x="12" y="47" width="8" height="16" rx="4"/><rect class="cls-5" y="55" width="8" height="8" rx="4"/></g><path class="cls-6" d="M47.46,16.15H45.52V2.85H48.1l5.44,10.53V2.85h1.93v13.3H52.89L47.46,5.63Z"/><path class="cls-6" d="M66.42,7.58v9.25a2.43,2.43,0,0,1-2.7,2.63H60.13V17.9h3.31c.51,0,1.08-.14,1.08-.91V14.88a3.34,3.34,0,0,1-2.87,1.46,4.24,4.24,0,0,1-4.29-4.48,4.23,4.23,0,0,1,4.27-4.51,3.39,3.39,0,0,1,2.91,1.51c0-.19,0-.4,0-.67V7.58Zm-4.48,7.14a2.67,2.67,0,0,0,2.65-2.86,2.66,2.66,0,1,0-5.3,0A2.67,2.67,0,0,0,61.94,14.72Z"/><path class="cls-6" d="M73.58,10.39C73.58,9.48,72.9,9,71.8,9a4,4,0,0,0-2.42.91l-.89-1.41a5.35,5.35,0,0,1,3.44-1.16c2.26,0,3.55,1.26,3.55,3.08v5.72h-1.9v-.89a2.9,2.9,0,0,1-2.45,1.12c-2,0-3.1-1.12-3.1-2.7s1.18-2.62,3.1-2.62H73c.44,0,.61-.19.61-.53ZM69.4,4.31h5.3V5.89H69.4ZM73.58,13v-.75a1.48,1.48,0,0,1-.91.19H71.53c-1,0-1.52.44-1.52,1.16s.49,1.28,1.52,1.28A1.84,1.84,0,0,0,73.58,13Z"/><path class="cls-6" d="M90,2.85V4.6h-4V16.15h-2V4.6h-4V2.85Z"/><path class="cls-6" d="M89.24,13V7.58h1.9v5.21a2,2,0,0,0,4,0V7.58h1.88V13c0,1.81-1.43,3.35-3.9,3.35S89.24,14.84,89.24,13Zm1.25-8.72h5.3V5.89h-5.3Z"/><path class="cls-6" d="M101.57,4.13V7.58h2V9.14h-2V14c0,.59.44.7.87.7a8,8,0,0,0,1.16-.08v1.58s-.93.1-1.63.1c-1,0-2.3-.21-2.3-1.89V9.14H98.26V7.58h1.41V4.13Z"/><path class="cls-6" d="M109.19,7.35a4.52,4.52,0,1,1-4.56,4.51A4.46,4.46,0,0,1,109.19,7.35Zm0,1.66a2.65,2.65,0,0,0-2.64,2.85,2.65,2.65,0,1,0,5.28,0A2.65,2.65,0,0,0,109.19,9Z"/><path class="cls-6" d="M120.09,7.35a3,3,0,0,1,3.2,3.21v5.59H121.4V10.83A1.62,1.62,0,0,0,119.69,9a3.12,3.12,0,0,0-2.33,1.26v5.85h-1.88V2.85h1.88V7.7c0,.24,0,.77,0,1A3.64,3.64,0,0,1,120.09,7.35Z"/><path class="cls-6" d="M125.36,13V7.58h1.9v5.21a2,2,0,0,0,4,0V7.58h1.89V13c0,1.81-1.43,3.35-3.9,3.35S125.36,14.84,125.36,13Z"/><path class="cls-6" d="M149,16.15h-2.18L145.46,12h-4.41l-1.27,4.18h-2.09l4.39-13.3h2.45ZM143.29,4.9h0l-1.69,5.38H145Z"/><path class="cls-6" d="M154.18,7.35a4.52,4.52,0,1,1,0,9,4.46,4.46,0,0,1-4.56-4.52A4.44,4.44,0,0,1,154.18,7.35Zm0,1.66a2.65,2.65,0,0,0-2.64,2.85,2.65,2.65,0,1,0,5.28,0A2.65,2.65,0,0,0,154.18,9Z"/><path class="cls-6" d="M162.83,4.13V7.58h2V9.14h-2V14c0,.59.43.7.87.7a8.15,8.15,0,0,0,1.16-.08v1.58s-.93.1-1.64.1c-1,0-2.29-.21-2.29-1.89V9.14h-1.41V7.58h1.41V4.13Z"/><path class="cls-6" d="M174.66,12.45h-6.74a2.39,2.39,0,0,0,2.41,2.27,2.32,2.32,0,0,0,2-1l2.15,0a4.39,4.39,0,0,1-4.16,2.59,4.34,4.34,0,0,1-4.43-4.52,4.29,4.29,0,0,1,4.37-4.51c2.3,0,4.39,1.54,4.39,5.08Zm-6.74-1.39h4.61A2.22,2.22,0,0,0,170.29,9,2.34,2.34,0,0,0,167.92,11.06Z"/><path class="cls-6" d="M181.14,10.39c0-.91-.68-1.38-1.79-1.38a4,4,0,0,0-2.41.91l-.89-1.41a5.35,5.35,0,0,1,3.44-1.16c2.26,0,3.55,1.26,3.55,3.08v5.72h-1.9v-.89a2.9,2.9,0,0,1-2.45,1.12c-2,0-3.1-1.12-3.1-2.7s1.18-2.62,3.1-2.62h1.84c.44,0,.61-.19.61-.53Zm0,2.63v-.75a1.48,1.48,0,0,1-.91.19h-1.14c-1,0-1.52.44-1.52,1.16s.49,1.28,1.52,1.28A1.84,1.84,0,0,0,181.14,13Z"/><path class="cls-6" d="M190.13,9.25h-1c-1.22,0-2,.71-2,2.64v4.26h-1.88V7.58h1.84V9a2.31,2.31,0,0,1,2.37-1.52,4,4,0,0,1,.67.06Z"/><path class="cls-6" d="M195.39,7.35a4.52,4.52,0,1,1,0,9,4.46,4.46,0,0,1-4.56-4.52A4.44,4.44,0,0,1,195.39,7.35Zm0,1.66a2.65,2.65,0,0,0-2.64,2.85,2.65,2.65,0,1,0,5.28,0A2.65,2.65,0,0,0,195.39,9Z"/><path class="cls-6" d="M206.54,10.39c0-.91-.68-1.38-1.78-1.38a3.92,3.92,0,0,0-2.41.91l-.9-1.41a5.35,5.35,0,0,1,3.44-1.16c2.26,0,3.55,1.26,3.55,3.08v5.72h-1.9v-.89a2.89,2.89,0,0,1-2.45,1.12c-2,0-3.09-1.12-3.09-2.7s1.17-2.62,3.09-2.62h1.85c.43,0,.6-.19.6-.53Zm0,2.63v-.75a1.48,1.48,0,0,1-.91.19h-1.14c-1,0-1.52.44-1.52,1.16s.5,1.28,1.52,1.28A1.83,1.83,0,0,0,206.54,13Z"/><path class="cls-6" d="M216.75,7.14a2.2,2.2,0,1,1-2.19,2.19A2.19,2.19,0,0,1,216.75,7.14Z"/><path class="cls-6" d="M225.47,2.85h2v13.3h-2Z"/><path class="cls-6" d="M232,7.7c0,.24,0,.77,0,1a3.63,3.63,0,0,1,2.79-1.3,3,3,0,0,1,3.19,3.21v5.59H236V10.83A1.62,1.62,0,0,0,234.32,9,3.13,3.13,0,0,0,232,10.3v5.85H230.1V7.58H232Z"/><path class="cls-6" d="M246.73,14.9a3.31,3.31,0,0,1-2.87,1.48,4.28,4.28,0,0,1-4.31-4.52,4.23,4.23,0,0,1,4.27-4.51,3.45,3.45,0,0,1,3,1.51c0-.59,0-1.3,0-2V2.85h1.88v13.3h-1.9Zm-5.25-3a2.67,2.67,0,1,0,5.32,0,2.67,2.67,0,1,0-5.32,0Z"/><path class="cls-6" d="M251.33,9.14H250V7.58h3.18v8.57h-1.88Zm-.5-4.64a1.33,1.33,0,0,1,1.33-1.34,1.35,1.35,0,0,1,1.35,1.34,1.33,1.33,0,0,1-1.35,1.33A1.32,1.32,0,0,1,250.83,4.5Z"/><path class="cls-6" d="M259.48,14.72a2.4,2.4,0,0,0,2.18-1.25l1.64.84a4.31,4.31,0,0,1-3.82,2.07,4.41,4.41,0,0,1-4.54-4.5,4.42,4.42,0,0,1,4.54-4.53,4.31,4.31,0,0,1,3.82,2.07l-1.64.84A2.4,2.4,0,0,0,259.48,9a2.66,2.66,0,0,0-2.63,2.87A2.64,2.64,0,0,0,259.48,14.72Z"/><path class="cls-6" d="M269.76,10.39c0-.91-.69-1.38-1.79-1.38a3.92,3.92,0,0,0-2.41.91l-.9-1.41a5.37,5.37,0,0,1,3.44-1.16c2.26,0,3.56,1.26,3.56,3.08v5.72h-1.9v-.89a2.92,2.92,0,0,1-2.46,1.12c-1.95,0-3.09-1.12-3.09-2.7s1.18-2.62,3.09-2.62h1.85c.43,0,.61-.19.61-.53Zm0,2.63v-.75a1.54,1.54,0,0,1-.92.19H267.7c-1,0-1.52.44-1.52,1.16s.5,1.28,1.52,1.28A1.84,1.84,0,0,0,269.76,13Z"/><path class="cls-6" d="M276.22,4.13V7.58h2V9.14h-2V14c0,.59.43.7.87.7a8.15,8.15,0,0,0,1.16-.08v1.58s-.93.1-1.64.1c-1,0-2.29-.21-2.29-1.89V9.14h-1.41V7.58h1.41V4.13Z"/><path class="cls-6" d="M283.83,7.35a4.52,4.52,0,1,1-4.56,4.51A4.46,4.46,0,0,1,283.83,7.35Zm0,1.66a2.66,2.66,0,0,0-2.64,2.85,2.65,2.65,0,1,0,5.28,0A2.65,2.65,0,0,0,283.83,9Z"/><path class="cls-6" d="M295,9.25h-1c-1.22,0-2,.71-2,2.64v4.26h-1.88V7.58H292V9a2.31,2.31,0,0,1,2.37-1.52,4,4,0,0,1,.67.06Z"/><path class="cls-6" d="M300.59,13.76c0-.61-.49-.84-1.59-1.22l-.5-.17c-1.48-.51-2.43-1.16-2.43-2.53s1.33-2.49,3.21-2.49a4.89,4.89,0,0,1,3.27,1.18l-1,1.31a3.73,3.73,0,0,0-2.22-.91c-.7,0-1.27.32-1.27.82s.3.64,1.06.91l1,.36c1.71.61,2.45,1.44,2.45,2.72s-1.08,2.64-3.48,2.64a5.19,5.19,0,0,1-3.44-1.26l1-1.38a4.32,4.32,0,0,0,2.43,1.06C300.14,14.8,300.59,14.29,300.59,13.76Z"/><path class="cls-6" d="M317.94,16.15h-2.19L314.4,12H310l-1.28,4.18h-2.09L311,2.85h2.45ZM312.24,4.9h0l-1.69,5.38h3.38Z"/><path class="cls-6" d="M323.13,7.35a4.52,4.52,0,1,1,0,9,4.46,4.46,0,0,1-4.56-4.52A4.44,4.44,0,0,1,323.13,7.35Zm0,1.66a2.65,2.65,0,0,0-2.64,2.85,2.65,2.65,0,1,0,5.28,0A2.66,2.66,0,0,0,323.13,9Z"/><path class="cls-6" d="M331.77,4.13V7.58h2V9.14h-2V14c0,.59.44.7.88.7a7.91,7.91,0,0,0,1.15-.08v1.58s-.93.1-1.63.1c-1,0-2.3-.21-2.3-1.89V9.14h-1.4V7.58h1.4V4.13Z"/><path class="cls-6" d="M343.61,12.45h-6.75a2.41,2.41,0,0,0,2.42,2.27,2.35,2.35,0,0,0,2-1l2.15,0a4.39,4.39,0,0,1-4.16,2.59,4.34,4.34,0,0,1-4.43-4.52,4.29,4.29,0,0,1,4.37-4.51c2.3,0,4.39,1.54,4.39,5.08Zm-6.75-1.39h4.62A2.23,2.23,0,0,0,339.24,9,2.35,2.35,0,0,0,336.86,11.06Z"/><path class="cls-6" d="M350.09,10.39c0-.91-.69-1.38-1.79-1.38a3.92,3.92,0,0,0-2.41.91L345,8.51a5.32,5.32,0,0,1,3.43-1.16c2.26,0,3.56,1.26,3.56,3.08v5.72h-1.9v-.89a2.91,2.91,0,0,1-2.45,1.12c-2,0-3.1-1.12-3.1-2.7s1.18-2.62,3.1-2.62h1.84c.44,0,.61-.19.61-.53Zm0,2.63v-.75a1.5,1.5,0,0,1-.91.19H348c-1,0-1.52.44-1.52,1.16S347,14.9,348,14.9A1.84,1.84,0,0,0,350.09,13Z"/><path class="cls-6" d="M359.07,9.25h-1c-1.22,0-2,.71-2,2.64v4.26h-1.88V7.58H356V9a2.33,2.33,0,0,1,2.38-1.52,3.77,3.77,0,0,1,.66.06Z"/><path class="cls-6" d="M364.34,7.35a4.52,4.52,0,1,1-4.56,4.51A4.46,4.46,0,0,1,364.34,7.35Zm0,1.66a2.65,2.65,0,0,0-2.64,2.85,2.65,2.65,0,1,0,5.28,0A2.65,2.65,0,0,0,364.34,9Z"/><path class="cls-6" d="M375.49,10.39c0-.91-.68-1.38-1.79-1.38a4,4,0,0,0-2.41.91l-.89-1.41a5.35,5.35,0,0,1,3.44-1.16c2.26,0,3.55,1.26,3.55,3.08v5.72h-1.9v-.89A2.9,2.9,0,0,1,373,16.38c-2,0-3.1-1.12-3.1-2.7s1.18-2.62,3.1-2.62h1.84c.44,0,.61-.19.61-.53Zm0,2.63v-.75a1.5,1.5,0,0,1-.91.19h-1.14c-1,0-1.52.44-1.52,1.16s.49,1.28,1.52,1.28A1.84,1.84,0,0,0,375.49,13Z"/><path class="cls-6" d="M385.56,16.15h-1.94V2.85h2.59l5.43,10.53V2.85h1.94v13.3H391L385.56,5.63Z"/><path class="cls-6" d="M404.2,12.45h-6.75a2.41,2.41,0,0,0,2.42,2.27,2.35,2.35,0,0,0,2-1l2.15,0a4.39,4.39,0,0,1-4.16,2.59,4.34,4.34,0,0,1-4.43-4.52,4.29,4.29,0,0,1,4.37-4.51c2.3,0,4.39,1.54,4.39,5.08Zm-6.75-1.39h4.62A2.23,2.23,0,0,0,399.83,9,2.35,2.35,0,0,0,397.45,11.06Z"/><path class="cls-6" d="M414.25,14.19l1.63-6.61h2l-2.36,8.57h-2.37l-1.75-6.27-1.78,6.27H407.2L405,7.58h2.07l1.44,6.58,2-6.58h1.9Z"/><path class="cls-6" d="M422.27,4.6V2.85h10.07V4.56l-7.81,9.84h7.81v1.75H422.1V14.5l7.81-9.9Z"/><path class="cls-6" d="M442,12.45h-6.75a2.41,2.41,0,0,0,2.42,2.27,2.35,2.35,0,0,0,2-1l2.15,0a4.39,4.39,0,0,1-4.16,2.59,4.34,4.34,0,0,1-4.43-4.52,4.29,4.29,0,0,1,4.37-4.51c2.3,0,4.39,1.54,4.39,5.08Zm-6.75-1.39h4.62A2.23,2.23,0,0,0,437.66,9,2.35,2.35,0,0,0,435.28,11.06Z"/><path class="cls-6" d="M448.51,10.39c0-.91-.69-1.38-1.79-1.38a3.92,3.92,0,0,0-2.41.91l-.89-1.41a5.32,5.32,0,0,1,3.43-1.16c2.26,0,3.56,1.26,3.56,3.08v5.72h-1.9v-.89a2.91,2.91,0,0,1-2.45,1.12c-2,0-3.1-1.12-3.1-2.7s1.18-2.62,3.1-2.62h1.84c.44,0,.61-.19.61-.53Zm0,2.63v-.75a1.5,1.5,0,0,1-.91.19h-1.14c-1,0-1.52.44-1.52,1.16s.49,1.28,1.52,1.28A1.84,1.84,0,0,0,448.51,13Z"/><path class="cls-6" d="M454.49,16.15h-1.88V2.85h1.88Z"/><path class="cls-6" d="M461.65,10.39c0-.91-.68-1.38-1.78-1.38a3.92,3.92,0,0,0-2.41.91l-.9-1.41A5.37,5.37,0,0,1,460,7.35c2.26,0,3.55,1.26,3.55,3.08v5.72h-1.9v-.89a2.89,2.89,0,0,1-2.45,1.12c-1.95,0-3.09-1.12-3.09-2.7s1.18-2.62,3.09-2.62h1.85c.43,0,.6-.19.6-.53Zm0,2.63v-.75a1.48,1.48,0,0,1-.91.19H459.6c-1,0-1.52.44-1.52,1.16s.5,1.28,1.52,1.28A1.83,1.83,0,0,0,461.65,13Z"/><path class="cls-6" d="M467.6,7.7c0,.24,0,.77,0,1a3.63,3.63,0,0,1,2.8-1.3,3,3,0,0,1,3.19,3.21v5.59h-1.88V10.83A1.62,1.62,0,0,0,470,9a3.12,3.12,0,0,0-2.34,1.26v5.85h-1.88V7.58h1.84Z"/><path class="cls-6" d="M482.38,14.9a3.28,3.28,0,0,1-2.87,1.48,4.28,4.28,0,0,1-4.31-4.52,4.24,4.24,0,0,1,4.28-4.51,3.42,3.42,0,0,1,2.94,1.51c0-.59,0-1.3,0-2V2.85h1.88v13.3h-1.9Zm-5.24-3a2.67,2.67,0,1,0,5.32,0,2.67,2.67,0,1,0-5.32,0Z"/><path class="cls-6" d="M67.36,32.74l5.63,21h0l4.7-21h6L76.51,62.15H69.75L64.21,41,58.79,62.15H52L44.76,32.74h6.3l4.53,21h0l5.63-21Z"/><path class="cls-6" d="M104.19,54.13H89.87A4.57,4.57,0,0,0,98.14,56l5.67.59c-1.72,4.11-5.33,6-9.62,6A9.81,9.81,0,0,1,84.11,52.53a9.74,9.74,0,0,1,10-10.12c5.29,0,10.08,3.44,10.08,11.51ZM89.74,50.47h8.61a4.17,4.17,0,0,0-4.24-3.53A4.29,4.29,0,0,0,89.74,50.47Z"/><path class="cls-6" d="M113.05,62.15h-5.42V32.74h5.42Z"/><path class="cls-6" d="M123.38,62.15H118V32.74h5.42Z"/><path class="cls-6" d="M133.75,62.15h-5.46V32.74h5.46v9.5c0,1.26-.08,2.6-.08,3.15a6.9,6.9,0,0,1,6.09-3c5.29,0,9.33,4.24,9.33,10.12S145,62.65,139.72,62.65a6.93,6.93,0,0,1-6-2.94Zm-.12-9.62a4.93,4.93,0,1,0,9.83,0,4.93,4.93,0,1,0-9.83,0Z"/><path class="cls-6" d="M171.68,54.13H157.36A4.57,4.57,0,0,0,165.63,56l5.68.59c-1.73,4.11-5.34,6-9.62,6A9.81,9.81,0,0,1,151.6,52.53a9.75,9.75,0,0,1,10-10.12c5.29,0,10.08,3.44,10.08,11.51Zm-14.45-3.66h8.61a4.17,4.17,0,0,0-4.24-3.53A4.29,4.29,0,0,0,157.23,50.47Z"/><path class="cls-6" d="M181.72,62.15h-5.46V47.53h-2.69V42.91h8.15Zm-3-29.41a3.52,3.52,0,0,1,3.52,3.53,3.51,3.51,0,0,1-7,0A3.51,3.51,0,0,1,178.74,32.74Z"/><path class="cls-6" d="M197.76,42.41c4.16,0,7.14,2.64,7.14,7.14v12.6h-5.46V50.93a3.1,3.1,0,0,0-3.27-3.44,5.34,5.34,0,0,0-4.08,2.18V62.15h-5.46V42.91H192v.76c0,.67-.09,1.51-.09,1.51A7.56,7.56,0,0,1,197.76,42.41Z"/><path class="cls-6" d="M229.1,42.91V63.58c0,3-1.52,5.92-6.18,5.92h-8.36V64.88h7c1,0,2-.25,2-1.72v-3.7a7,7,0,0,1-6,2.9c-5.21,0-9.24-4-9.24-10s4-10,9.2-10a7,7,0,0,1,6.09,3c0-.21-.09-.59-.09-1.6v-.88ZM218.89,57.66c2.9,0,4.87-2.15,4.87-5.26s-2-5.29-4.87-5.29-4.83,2.14-4.83,5.29S216,57.66,218.89,57.66Z"/><path class="cls-6" d="M256.77,59.71a7,7,0,0,1-6,2.94c-5.3,0-9.33-4.24-9.33-10.12s4-10.12,9.28-10.12a7,7,0,0,1,6.14,3c0-.63-.09-2.23-.09-3.66v-9h5.46V62.15h-5.46Zm-9.7-7.18a4.93,4.93,0,1,0,9.83,0,4.93,4.93,0,1,0-9.83,0Z"/><path class="cls-6" d="M277.81,49.34c0-1.39-1.09-2.27-3.19-2.27a13.11,13.11,0,0,0-5.8,1.81l-2.14-4.12a16.48,16.48,0,0,1,8.24-2.35c4.36,0,8.35,2,8.35,7.1V62.15h-5.46V60.34c-1,1.52-3.19,2.31-5.37,2.31-4.08,0-6.72-2.89-6.72-6,0-3.66,2.68-5.93,7-5.93h3.78c.92,0,1.34-.42,1.34-1.13Zm0,5.92V53.88a2.39,2.39,0,0,1-1.68.41h-2.05c-1.73,0-2.74.76-2.74,2.1s1.06,2.27,2.74,2.27C276.05,58.66,277.81,57.66,277.81,55.26Z"/><path class="cls-6" d="M294.86,35.6v7.31H299v4.62h-4.16v8.7c0,1.22,1,1.38,1.81,1.38,1.39,0,2.52-.12,2.52-.12v4.66s-2.65.25-4.24.25c-2.73,0-5.55-.46-5.55-4.32V47.53h-3V42.91h3V35.6Z"/><path class="cls-6" d="M313.68,49.34c0-1.39-1.09-2.27-3.19-2.27a13.11,13.11,0,0,0-5.8,1.81l-2.14-4.12a16.47,16.47,0,0,1,8.23-2.35c4.37,0,8.36,2,8.36,7.1V62.15h-5.46V60.34c-1,1.52-3.19,2.31-5.38,2.31-4.07,0-6.72-2.89-6.72-6,0-3.66,2.69-5.93,7-5.93h3.78c.92,0,1.34-.42,1.34-1.13Zm0,5.92V53.88a2.39,2.39,0,0,1-1.68.41h-2.06c-1.72,0-2.73.76-2.73,2.1s1.05,2.27,2.73,2.27C311.92,58.66,313.68,57.66,313.68,55.26Z"/><path class="cls-6" d="M333.76,37.45c0-3.78,2.52-5.08,5.46-5.08,1.47,0,4,.25,4,.25v5s-1.68-.21-2.27-.21c-1.05,0-1.72.25-1.72,1.59v3.91h3.69v4.62h-3.69V62.15h-5.46V47.53h-3V42.91h3Z"/><path class="cls-6" d="M344.8,52.53a10.29,10.29,0,1,1,10.29,10.12A10,10,0,0,1,344.8,52.53Zm5.46,0c0,3,2,5.25,4.83,5.25s4.79-2.27,4.79-5.25-2-5.25-4.79-5.25S350.26,49.51,350.26,52.53Z"/><path class="cls-6" d="M380.88,48.29h-2.31c-2.77,0-4,1.3-4,4.66v9.2h-5.46V42.91h5.29V46a5.07,5.07,0,0,1,5-3.32,6,6,0,0,1,1.51.17Z"/><path class="cls-6" d="M398.48,62.15h-5.76V32.74h7.69l9.91,19.58V32.74h5.76V62.15H409l-10.5-20.42Z"/><path class="cls-6" d="M440.06,54.13H425.74A4.57,4.57,0,0,0,434,56l5.67.59c-1.72,4.11-5.33,6-9.62,6A9.81,9.81,0,0,1,420,52.53a9.74,9.74,0,0,1,10-10.12c5.29,0,10.08,3.44,10.08,11.51Zm-14.45-3.66h8.61A4.17,4.17,0,0,0,430,46.94,4.29,4.29,0,0,0,425.61,50.47Z"/><path class="cls-6" d="M462.53,55.43l2.94-12.52h5.63l-5,19.24h-6.47l-3.36-12-3.44,12H446.4l-4.71-19.24h5.89l2.56,12.35,3.57-12.35H459Z"/><path class="cls-6" d="M481.55,38V32.74h23.32v5L488.74,57h16.13v5.17H481.22V57.36L497.52,38Z"/><path class="cls-6" d="M527.21,54.13H512.88A4.57,4.57,0,0,0,521.16,56l5.67.59c-1.72,4.11-5.33,6-9.62,6a9.81,9.81,0,0,1-10.08-10.12,9.74,9.74,0,0,1,10-10.12c5.29,0,10.08,3.44,10.08,11.51Zm-14.45-3.66h8.61a4.17,4.17,0,0,0-4.24-3.53A4.29,4.29,0,0,0,512.76,50.47Z"/><path class="cls-6" d="M541.32,49.34c0-1.39-1.09-2.27-3.19-2.27a13.07,13.07,0,0,0-5.8,1.81l-2.14-4.12a16.47,16.47,0,0,1,8.23-2.35c4.37,0,8.36,2,8.36,7.1V62.15h-5.46V60.34c-1,1.52-3.19,2.31-5.38,2.31-4.07,0-6.72-2.89-6.72-6,0-3.66,2.69-5.93,7-5.93H540c.92,0,1.34-.42,1.34-1.13Zm0,5.92V53.88a2.41,2.41,0,0,1-1.68.41h-2.06c-1.72,0-2.73.76-2.73,2.1s1,2.27,2.73,2.27C539.56,58.66,541.32,57.66,541.32,55.26Z"/><path class="cls-6" d="M556.9,62.15h-5.42V32.74h5.42Z"/><path class="cls-6" d="M572.48,49.34c0-1.39-1.09-2.27-3.19-2.27a13.11,13.11,0,0,0-5.8,1.81l-2.14-4.12a16.47,16.47,0,0,1,8.23-2.35c4.37,0,8.36,2,8.36,7.1V62.15h-5.46V60.34c-1,1.52-3.19,2.31-5.37,2.31-4.08,0-6.72-2.89-6.72-6,0-3.66,2.68-5.93,7-5.93h3.78c.92,0,1.34-.42,1.34-1.13Zm0,5.92V53.88a2.39,2.39,0,0,1-1.68.41h-2.06c-1.72,0-2.73.76-2.73,2.1s1,2.27,2.73,2.27C570.72,58.66,572.48,57.66,572.48,55.26Z"/><path class="cls-6" d="M593.78,42.41c4.16,0,7.14,2.64,7.14,7.14v12.6h-5.46V50.93a3.11,3.11,0,0,0-3.28-3.44,5.32,5.32,0,0,0-4.07,2.18V62.15h-5.46V42.91H588v.76c0,.67-.08,1.51-.08,1.51A7.55,7.55,0,0,1,593.78,42.41Z"/><path class="cls-6" d="M619.78,59.71a7.05,7.05,0,0,1-6,2.94c-5.29,0-9.33-4.24-9.33-10.12s4-10.12,9.29-10.12a7,7,0,0,1,6.13,3c0-.63-.08-2.23-.08-3.66v-9h5.46V62.15h-5.46Zm-9.71-7.18a4.93,4.93,0,1,0,9.83,0,4.93,4.93,0,1,0-9.83,0Z"/><path class="cls-6" d="M649,54.13H634.68A4.57,4.57,0,0,0,643,56l5.67.59c-1.72,4.11-5.34,6-9.62,6a9.81,9.81,0,0,1-10.08-10.12,9.74,9.74,0,0,1,10-10.12c5.29,0,10.08,3.44,10.08,11.51Zm-14.45-3.66h8.61a4.17,4.17,0,0,0-4.24-3.53A4.29,4.29,0,0,0,634.56,50.47Z"/><path class="cls-6" d="M664.25,48.29h-2.31c-2.77,0-4,1.3-4,4.66v9.2h-5.46V42.91h5.29V46a5.07,5.07,0,0,1,5-3.32,6,6,0,0,1,1.51.17Z"/><path class="cls-6" d="M678.87,48.79a7,7,0,0,0-4.75-2c-1.43,0-1.93.71-1.93,1.3s.42,1.13,1.43,1.47l3.19,1c4,1.3,5.29,3.44,5.29,6,0,2.82-2.39,6.09-7.64,6.09a12.4,12.4,0,0,1-8.49-3l2.9-3.78a9.53,9.53,0,0,0,5.67,2.39c1.3,0,2.1-.67,2.1-1.43,0-1-.63-1.38-2.18-1.84l-3.28-1c-3.11-1-4.45-3.11-4.45-5.63,0-3.15,2.85-6,7.48-6A11.48,11.48,0,0,1,682,45.26Z"/></g></svg>