<svg id="Layer_1" data-name="Layer 1" xmlns="http://www.w3.org/2000/svg" viewBox="0 0 280 102"><defs><style>.cls-1{fill:#ec6608;}.cls-2{fill:#1d1d1b;}.cls-3{fill:#00b2c3;}.cls-4{fill:#a2c62b;}.cls-5{fill:#ed7218;}.cls-6{fill:#272726;}</style></defs><title>header en sm</title><g id="header_en_sm" data-name="header en sm"><g id="Stats_NZ_logo_small" data-name="Stats NZ logo small"><path class="cls-1" d="M94,90a6,6,0,1,0,5.9,6v0A5.92,5.92,0,0,0,94,90h0Zm-.29,8.43H92.48l-1.34-2.58v2.57h-1V94.13h1.3l1.24,2.54V94.15h1Zm4.16-3.36L95.67,97.5h2.16v1H94.28v-.89l2.21-2.46H94.34v-1h3.51Z"/><path class="cls-2" d="M86.34,95.14a4.43,4.43,0,0,0-3-1.13c-1.81,0-2.92,1.11-2.92,2.34a2.25,2.25,0,0,0,1.74,2.22L83.4,99c.61.19.86.35.86.73s-.32.56-.82.56a3.71,3.71,0,0,1-2.23-1l-1.13,1.49A4.84,4.84,0,0,0,83.41,102c2,0,3-1.29,3-2.4s-.52-1.84-2.06-2.34l-1.25-.39c-.39-.14-.56-.31-.56-.58s.19-.5.75-.5a2.71,2.71,0,0,1,1.86.78ZM75.47,91.33v2.88H74.3V96h1.17v4.15c0,1.53,1.1,1.71,2.17,1.71.62,0,1.65-.11,1.65-.11V100a9.69,9.69,0,0,1-1,0c-.33,0-.7-.07-.7-.55V96h1.62V94.21H77.59V91.33Zm-13.65,0v2.88H60.65V96h1.17v4.15c0,1.53,1.1,1.71,2.17,1.71.62,0,1.66-.11,1.66-.11V100a9.69,9.69,0,0,1-1,0c-.34,0-.72-.07-.72-.55V96h1.63V94.21H63.94V91.33Zm-1.56.3A5.92,5.92,0,0,0,56.48,90c-2,0-3.83,1.23-3.83,3.26,0,1.46,1,2.52,2.51,3.25l.81.39c1.1.52,1.81,1,1.81,1.76s-.61,1.26-1.59,1.26a4.2,4.2,0,0,1-2.81-1.37l-1.26,1.71A5.61,5.61,0,0,0,56.24,102c2.52,0,4-1.69,4-3.43S59.09,95.85,57.29,95l-1-.45c-.92-.43-1.24-.84-1.24-1.37,0-.7.69-1.1,1.44-1.1A3.92,3.92,0,0,1,59,93.29Zm10.82,6.9v.56a1.3,1.3,0,0,1-1.46,1.33.94.94,0,0,1-1.06-.9c0-.51.39-.83,1.07-.83h.81a.94.94,0,0,0,.65-.16m3.19,3.36v-1.81H73.8c-.32,0-.57-.07-.57-.53V96.8c0-2-1.56-2.8-3.27-2.8a6.42,6.42,0,0,0-3.22.94l.83,1.61a5,5,0,0,1,2.26-.7c.82,0,1.25.35,1.25.89v.08c0,.28-.16.45-.52.45H69.07c-1.67,0-2.72.9-2.72,2.34A2.47,2.47,0,0,0,69,102a2.51,2.51,0,0,0,2.1-.91l.1-.13c.28.91,1.18,1,2.06,1a4.44,4.44,0,0,0,1-.1"/></g><g id="Columns"><rect class="cls-3" x="30" y="36" width="10" height="40" rx="5"/><rect class="cls-4" x="15" y="56" width="10" height="20" rx="5"/><rect class="cls-5" y="66" width="10" height="10" rx="5"/></g><path class="cls-6" d="M54.73,14.45H53.2V4h2l4.29,8.31V4h1.53v10.5H59L54.73,6.14Z"/><path class="cls-6" d="M69.7,7.69V15a1.91,1.91,0,0,1-2.13,2.07H64.73V15.83h2.61c.41,0,.86-.11.86-.72V13.44a2.63,2.63,0,0,1-2.27,1.16,3.35,3.35,0,0,1-3.39-3.54A3.34,3.34,0,0,1,65.92,7.5a2.68,2.68,0,0,1,2.29,1.19c0-.15,0-.31,0-.52V7.69Zm-3.54,5.63a2.11,2.11,0,0,0,2.1-2.26,2.1,2.1,0,1,0-4.19,0A2.11,2.11,0,0,0,66.16,13.32Z"/><path class="cls-6" d="M75.35,9.9c0-.71-.54-1.09-1.41-1.09a3.13,3.13,0,0,0-1.9.72l-.71-1.11a4.17,4.17,0,0,1,2.72-.92c1.78,0,2.8,1,2.8,2.44v4.51h-1.5v-.71a2.28,2.28,0,0,1-1.93.89A2.16,2.16,0,0,1,71,12.5c0-1.32.93-2.07,2.45-2.07h1.45c.35,0,.48-.15.48-.42Zm-3.3-4.8h4.19V6.35H72.05ZM75.35,12v-.58a1.24,1.24,0,0,1-.72.15h-.9c-.79,0-1.2.34-1.2.91s.39,1,1.2,1A1.45,1.45,0,0,0,75.35,12Z"/><path class="cls-6" d="M88.3,4V5.33H85.1v9.12H83.53V5.33h-3.2V4Z"/><path class="cls-6" d="M87.71,12V7.69h1.5v4.1a1.6,1.6,0,0,0,3.19,0V7.69h1.48V12c0,1.42-1.13,2.64-3.08,2.64S87.71,13.41,87.71,12Zm1-6.89h4.18V6.35H88.71Z"/><path class="cls-6" d="M97.45,5V7.69H99V8.92H97.45v3.79c0,.46.34.55.69.55a6.46,6.46,0,0,0,.91-.06v1.25s-.73.07-1.28.07C97,14.52,96,14.36,96,13V8.92H94.84V7.69H96V5Z"/><path class="cls-6" d="M103.46,7.5a3.57,3.57,0,1,1-3.6,3.56A3.53,3.53,0,0,1,103.46,7.5Zm0,1.31a2.09,2.09,0,0,0-2.08,2.25,2.09,2.09,0,1,0,4.17,0A2.1,2.1,0,0,0,103.46,8.81Z"/><path class="cls-6" d="M112.07,7.5A2.34,2.34,0,0,1,114.59,10v4.41h-1.48v-4.2a1.28,1.28,0,0,0-1.35-1.41,2.47,2.47,0,0,0-1.85,1v4.62h-1.48V4h1.48V7.77c0,.2,0,.62,0,.75A2.89,2.89,0,0,1,112.07,7.5Z"/><path class="cls-6" d="M116.23,12V7.69h1.5v4.1a1.59,1.59,0,0,0,3.18,0V7.69h1.48V12c0,1.42-1.12,2.64-3.07,2.64S116.23,13.41,116.23,12Z"/><path class="cls-6" d="M134.89,14.45h-1.73l-1.06-3.3h-3.48l-1,3.3H126L129.43,4h1.93Zm-4.5-8.88h0L129,9.81h2.67Z"/><path class="cls-6" d="M139,7.5a3.57,3.57,0,1,1-3.6,3.56A3.53,3.53,0,0,1,139,7.5Zm0,1.31a2.09,2.09,0,0,0-2.08,2.25,2.09,2.09,0,1,0,4.17,0A2.1,2.1,0,0,0,139,8.81Z"/><path class="cls-6" d="M145.81,5V7.69h1.59V8.92h-1.59v3.79c0,.46.34.55.69.55a6.64,6.64,0,0,0,.91-.06v1.25s-.73.07-1.29.07c-.81,0-1.81-.16-1.81-1.48V8.92H143.2V7.69h1.11V5Z"/><path class="cls-6" d="M155.15,11.52h-5.32a1.89,1.89,0,0,0,1.9,1.8,1.82,1.82,0,0,0,1.59-.78l1.7.05a3.47,3.47,0,0,1-3.29,2,3.42,3.42,0,0,1-3.49-3.57,3.39,3.39,0,0,1,3.45-3.56c1.81,0,3.46,1.22,3.46,4Zm-5.32-1.09h3.64a1.76,1.76,0,0,0-1.77-1.62A1.85,1.85,0,0,0,149.83,10.43Z"/><path class="cls-6" d="M160.27,9.9c0-.71-.54-1.09-1.41-1.09a3.13,3.13,0,0,0-1.91.72l-.7-1.11A4.16,4.16,0,0,1,159,7.5c1.79,0,2.81,1,2.81,2.44v4.51h-1.5v-.71a2.28,2.28,0,0,1-1.94.89,2.15,2.15,0,0,1-2.44-2.13c0-1.32.93-2.07,2.44-2.07h1.46c.34,0,.48-.15.48-.42Zm0,2.07v-.58a1.29,1.29,0,0,1-.72.15h-.9c-.8,0-1.2.34-1.2.91s.39,1,1.2,1A1.45,1.45,0,0,0,160.27,12Z"/><path class="cls-6" d="M167.36,9h-.78c-1,0-1.59.56-1.59,2.09v3.36h-1.48V7.69H165V8.77a1.84,1.84,0,0,1,1.88-1.21,3.26,3.26,0,0,1,.52.05Z"/><path class="cls-6" d="M171.52,7.5a3.57,3.57,0,1,1-3.6,3.56A3.52,3.52,0,0,1,171.52,7.5Zm0,1.31a2.1,2.1,0,0,0-2.09,2.25,2.09,2.09,0,1,0,4.17,0A2.09,2.09,0,0,0,171.52,8.81Z"/><path class="cls-6" d="M180.32,9.9c0-.71-.54-1.09-1.41-1.09a3.13,3.13,0,0,0-1.9.72l-.71-1.11A4.17,4.17,0,0,1,179,7.5c1.78,0,2.8,1,2.8,2.44v4.51h-1.5v-.71a2.28,2.28,0,0,1-1.93.89,2.16,2.16,0,0,1-2.45-2.13c0-1.32.93-2.07,2.45-2.07h1.45c.35,0,.48-.15.48-.42Zm0,2.07v-.58a1.24,1.24,0,0,1-.72.15h-.9c-.79,0-1.2.34-1.2.91s.39,1,1.2,1A1.45,1.45,0,0,0,180.32,12Z"/><path class="cls-6" d="M188.38,7.34a1.73,1.73,0,0,1,0,3.46,1.73,1.73,0,1,1,0-3.46Z"/><path class="cls-6" d="M195.26,4h1.59v10.5h-1.59Z"/><path class="cls-6" d="M200.38,7.77c0,.2,0,.62,0,.75a2.87,2.87,0,0,1,2.21-1A2.34,2.34,0,0,1,205.09,10v4.41H203.6v-4.2a1.28,1.28,0,0,0-1.35-1.41,2.47,2.47,0,0,0-1.84,1v4.62h-1.49V7.69h1.46Z"/><path class="cls-6" d="M212.05,13.46a2.61,2.61,0,0,1-2.27,1.17,3.38,3.38,0,0,1-3.4-3.57,3.35,3.35,0,0,1,3.37-3.56,2.74,2.74,0,0,1,2.33,1.19c0-.46,0-1,0-1.54V4h1.49v10.5h-1.5Zm-4.14-2.4a2.11,2.11,0,1,0,4.2,0,2.11,2.11,0,1,0-4.2,0Z"/><path class="cls-6" d="M215.68,8.92h-1V7.69h2.5v6.76h-1.48Zm-.39-3.67a1.05,1.05,0,0,1,1.05-1.06,1.06,1.06,0,1,1,0,2.12A1,1,0,0,1,215.29,5.25Z"/><path class="cls-6" d="M222.11,13.32a1.9,1.9,0,0,0,1.73-1l1.29.66a3.39,3.39,0,0,1-3,1.64,3.49,3.49,0,0,1-3.58-3.56,3.49,3.49,0,0,1,3.58-3.57,3.39,3.39,0,0,1,3,1.64l-1.29.66a1.92,1.92,0,0,0-1.73-1A2.09,2.09,0,0,0,220,11.07,2.08,2.08,0,0,0,222.11,13.32Z"/><path class="cls-6" d="M230.23,9.9c0-.71-.54-1.09-1.41-1.09a3.13,3.13,0,0,0-1.91.72l-.7-1.11a4.16,4.16,0,0,1,2.71-.92c1.79,0,2.81,1,2.81,2.44v4.51h-1.5v-.71a2.28,2.28,0,0,1-1.94.89,2.15,2.15,0,0,1-2.44-2.13c0-1.32.93-2.07,2.44-2.07h1.46c.34,0,.48-.15.48-.42Zm0,2.07v-.58a1.29,1.29,0,0,1-.72.15h-.9c-.8,0-1.2.34-1.2.91s.39,1,1.2,1A1.45,1.45,0,0,0,230.23,12Z"/><path class="cls-6" d="M235.33,5V7.69h1.59V8.92h-1.59v3.79c0,.46.34.55.69.55a6.64,6.64,0,0,0,.91-.06v1.25s-.73.07-1.29.07c-.81,0-1.81-.16-1.81-1.48V8.92h-1.11V7.69h1.11V5Z"/><path class="cls-6" d="M241.34,7.5a3.57,3.57,0,1,1-3.6,3.56A3.53,3.53,0,0,1,241.34,7.5Zm0,1.31a2.09,2.09,0,0,0-2.08,2.25,2.09,2.09,0,1,0,4.17,0A2.1,2.1,0,0,0,241.34,8.81Z"/><path class="cls-6" d="M250.16,9h-.78c-1,0-1.59.56-1.59,2.09v3.36h-1.48V7.69h1.45V8.77a1.84,1.84,0,0,1,1.88-1.21,3.26,3.26,0,0,1,.52.05Z"/><path class="cls-6" d="M254.57,12.56c0-.48-.39-.66-1.26-1l-.39-.14c-1.17-.4-1.92-.91-1.92-2s1.05-2,2.54-2a3.82,3.82,0,0,1,2.58.94l-.81,1a3,3,0,0,0-1.76-.72c-.55,0-1,.25-1,.65s.24.5.84.71l.79.29c1.35.48,1.94,1.14,1.94,2.14s-.86,2.09-2.75,2.09a4.12,4.12,0,0,1-2.71-1l.79-1.1a3.36,3.36,0,0,0,1.92.84C254.21,13.38,254.57,13,254.57,12.56Z"/><path class="cls-6" d="M262.19,14.45h-1.53V4h2L267,12.26V4h1.53v10.5h-2l-4.29-8.31Z"/><path class="cls-6" d="M270.25,5.33V4h7.95V5.3L272,13.07h6.17v1.38h-8.09V13.14l6.17-7.81Z"/><path class="cls-6" d="M68.13,28.15,72,42.68h0l3.25-14.53h4.12l-5,20.3H69.78L66,33.86,62.21,48.45H57.54l-5-20.3h4.35L60,42.68h0l3.88-14.53Z"/><path class="cls-6" d="M93.56,42.91H83.67a3.15,3.15,0,0,0,5.71,1.3l3.92.41a7.12,7.12,0,0,1-13.6-2.81,6.73,6.73,0,0,1,6.9-7c3.65,0,7,2.37,7,7.94Zm-10-2.52h6A2.88,2.88,0,0,0,86.6,38,3,3,0,0,0,83.58,40.39Z"/><path class="cls-6" d="M99.68,48.45H95.94V28.15h3.74Z"/><path class="cls-6" d="M106.81,48.45h-3.74V28.15h3.74Z"/><path class="cls-6" d="M114,48.45H110.2V28.15H114V34.7c0,.87,0,1.8,0,2.18a4.74,4.74,0,0,1,4.2-2.06c3.66,0,6.44,2.93,6.44,7s-2.81,7-6.47,7a4.8,4.8,0,0,1-4.12-2Zm-.08-6.64a3.4,3.4,0,1,0,6.78,0,3.4,3.4,0,1,0-6.78,0Z"/><path class="cls-6" d="M140.16,42.91h-9.89a3.16,3.16,0,0,0,5.72,1.3l3.91.41a7.12,7.12,0,0,1-13.6-2.81,6.73,6.73,0,0,1,6.9-7c3.66,0,7,2.37,7,7.94Zm-10-2.52h5.95A2.87,2.87,0,0,0,133.2,38,3,3,0,0,0,130.18,40.39Z"/><path class="cls-6" d="M147.09,48.45h-3.77V38.36h-1.86v-3.2h5.63ZM145,28.15a2.43,2.43,0,0,1,2.44,2.43,2.43,2.43,0,0,1-4.85,0A2.43,2.43,0,0,1,145,28.15Z"/><path class="cls-6" d="M158.17,34.82a4.62,4.62,0,0,1,4.93,4.93v8.7h-3.77V40.71a2.14,2.14,0,0,0-2.26-2.38,3.72,3.72,0,0,0-2.82,1.5v8.62h-3.77V35.16h3.69v.53c0,.46-.06,1-.06,1A5.2,5.2,0,0,1,158.17,34.82Z"/><path class="cls-6" d="M179.81,35.16V49.44c0,2.08-1.05,4.09-4.27,4.09h-5.77v-3.2h4.84c.67,0,1.42-.17,1.42-1.18V46.59a4.83,4.83,0,0,1-4.11,2c-3.6,0-6.39-2.72-6.39-6.87s2.76-6.9,6.36-6.9a4.77,4.77,0,0,1,4.2,2.06c0-.15-.06-.41-.06-1.11v-.61Zm-7.05,10.19a3.33,3.33,0,0,0,3.36-3.63,3.36,3.36,0,1,0-6.7,0A3.33,3.33,0,0,0,172.76,45.35Z"/><path class="cls-6" d="M198.92,46.77a4.89,4.89,0,0,1-4.15,2c-3.66,0-6.44-2.93-6.44-7s2.75-7,6.41-7A4.79,4.79,0,0,1,199,36.88c0-.44-.05-1.54-.05-2.53v-6.2h3.77v20.3h-3.77Zm-6.71-5a3.4,3.4,0,1,0,6.79,0,3.4,3.4,0,1,0-6.79,0Z"/><path class="cls-6" d="M213.44,39.6c0-1-.75-1.56-2.2-1.56a9,9,0,0,0-4,1.24l-1.48-2.84a11.36,11.36,0,0,1,5.68-1.62c3,0,5.77,1.39,5.77,4.9v8.73h-3.77V47.2a4.45,4.45,0,0,1-3.71,1.6,4.36,4.36,0,0,1-4.64-4.18c0-2.52,1.86-4.09,4.81-4.09h2.62c.63,0,.92-.29.92-.78Zm0,4.09v-.95a1.63,1.63,0,0,1-1.16.29h-1.42c-1.19,0-1.88.52-1.88,1.45S209.7,46,210.86,46A2.29,2.29,0,0,0,213.44,43.69Z"/><path class="cls-6" d="M225.22,30.12v5h2.87v3.2h-2.87v6c0,.84.66,1,1.24,1a16.94,16.94,0,0,0,1.74-.09v3.22s-1.82.17-2.93.17c-1.88,0-3.82-.32-3.82-3V38.36h-2.09v-3.2h2.09v-5Z"/><path class="cls-6" d="M238.21,39.6c0-1-.76-1.56-2.21-1.56a9,9,0,0,0-4,1.24l-1.48-2.84a11.42,11.42,0,0,1,5.69-1.62c3,0,5.77,1.39,5.77,4.9v8.73h-3.77V47.2a4.47,4.47,0,0,1-3.71,1.6,4.36,4.36,0,0,1-4.65-4.18c0-2.52,1.86-4.09,4.82-4.09h2.61c.64,0,.93-.29.93-.78Zm0,4.09v-.95a1.65,1.65,0,0,1-1.16.29h-1.42c-1.19,0-1.89.52-1.89,1.45s.73,1.56,1.89,1.56A2.3,2.3,0,0,0,238.21,43.69Z"/><path class="cls-6" d="M54,61.93c0-2.07,1.38-2.78,3-2.78.8,0,2.18.13,2.18.13V62s-.92-.11-1.24-.11c-.57,0-.94.13-.94.87v2.14h2v2.53H57v8H54v-8H52.34V64.92H54Z"/><path class="cls-6" d="M59.94,70.18a5.63,5.63,0,1,1,5.63,5.55A5.47,5.47,0,0,1,59.94,70.18Zm3,0a2.64,2.64,0,1,0,2.65-2.87A2.68,2.68,0,0,0,62.92,70.18Z"/><path class="cls-6" d="M79.58,67.86H78.31c-1.52,0-2.21.71-2.21,2.55v5h-3V64.92H76V66.6a2.77,2.77,0,0,1,2.74-1.82,3.4,3.4,0,0,1,.83.09Z"/><path class="cls-6" d="M89,75.45H85.83V59.35H90l5.43,10.72V59.35h3.15v16.1H94.73L89,64.27Z"/><path class="cls-6" d="M111.64,71.06h-7.85a2.4,2.4,0,0,0,2.42,2.11,2.36,2.36,0,0,0,2.11-1.08l3.11.32a5.61,5.61,0,1,1-5.31-7.77c2.89,0,5.52,1.89,5.52,6.3Zm-7.91-2h4.71a2.28,2.28,0,0,0-2.32-1.93A2.34,2.34,0,0,0,103.73,69.06Z"/><path class="cls-6" d="M123.83,71.77l1.61-6.85h3.08l-2.74,10.53h-3.54l-1.84-6.58-1.89,6.58H115l-2.58-10.53h3.22l1.4,6.76,2-6.76h2.92Z"/><path class="cls-6" d="M134,62.2V59.35h12.76v2.74L138,72.62h8.83v2.83H133.83V72.83l8.93-10.63Z"/><path class="cls-6" d="M158.9,71.06h-7.84a2.5,2.5,0,0,0,4.53,1l3.1.32a5.61,5.61,0,1,1-5.31-7.77c2.9,0,5.52,1.89,5.52,6.3Zm-7.91-2h4.71a2.27,2.27,0,0,0-2.32-1.93A2.35,2.35,0,0,0,151,69.06Z"/><path class="cls-6" d="M166.51,68.44c0-.76-.59-1.25-1.74-1.25a7.21,7.21,0,0,0-3.18,1l-1.17-2.25a9,9,0,0,1,4.51-1.29c2.39,0,4.57,1.11,4.57,3.89v6.92h-3v-1a3.53,3.53,0,0,1-2.94,1.27,3.46,3.46,0,0,1-3.68-3.32c0-2,1.47-3.24,3.82-3.24h2.07c.5,0,.73-.23.73-.62Zm0,3.24v-.76a1.3,1.3,0,0,1-.92.23h-1.12c-.94,0-1.5.41-1.5,1.15s.58,1.24,1.5,1.24A1.82,1.82,0,0,0,166.51,71.68Z"/><path class="cls-6" d="M174.93,75.45h-3V59.35h3Z"/><path class="cls-6" d="M183.35,68.44c0-.76-.6-1.25-1.75-1.25a7.17,7.17,0,0,0-3.17,1l-1.17-2.25a9,9,0,0,1,4.5-1.29c2.4,0,4.58,1.11,4.58,3.89v6.92h-3v-1a3.55,3.55,0,0,1-2.94,1.27,3.46,3.46,0,0,1-3.68-3.32c0-2,1.47-3.24,3.82-3.24h2.06c.51,0,.74-.23.74-.62Zm0,3.24v-.76a1.32,1.32,0,0,1-.92.23H181.3c-.94,0-1.49.41-1.49,1.15s.57,1.24,1.49,1.24A1.82,1.82,0,0,0,183.35,71.68Z"/><path class="cls-6" d="M194.9,64.64a3.67,3.67,0,0,1,3.91,3.91v6.9h-3V69.31a1.71,1.71,0,0,0-1.8-1.89,2.94,2.94,0,0,0-2.23,1.2v6.83h-3V64.92h2.92v.41c0,.37,0,.83,0,.83A4.13,4.13,0,0,1,194.9,64.64Z"/><path class="cls-6" d="M209,74.12a3.87,3.87,0,0,1-3.29,1.61c-2.9,0-5.1-2.33-5.1-5.55s2.18-5.54,5.08-5.54a3.82,3.82,0,0,1,3.35,1.63c0-.34,0-1.21,0-2V59.35h3v16.1h-3Zm-5.31-3.94a2.7,2.7,0,1,0,5.38,0,2.7,2.7,0,1,0-5.38,0Z"/><path class="cls-6" d="M224.91,71.06h-7.84a2.5,2.5,0,0,0,4.53,1l3.1.32a5.61,5.61,0,1,1-5.31-7.77c2.9,0,5.52,1.89,5.52,6.3Zm-7.91-2h4.71a2.27,2.27,0,0,0-2.32-1.93A2.35,2.35,0,0,0,217,69.06Z"/><path class="cls-6" d="M233.15,67.86h-1.27c-1.52,0-2.21.71-2.21,2.55v5h-3V64.92h2.9V66.6a2.77,2.77,0,0,1,2.74-1.82,3.4,3.4,0,0,1,.83.09Z"/><path class="cls-6" d="M241,68.14a3.8,3.8,0,0,0-2.59-1.08c-.79,0-1.06.39-1.06.71s.23.62.78.8l1.75.56c2.16.71,2.89,1.88,2.89,3.26,0,1.54-1.31,3.34-4.18,3.34A6.82,6.82,0,0,1,234,74.07L235.56,72a5.24,5.24,0,0,0,3.11,1.31c.71,0,1.14-.37,1.14-.78s-.34-.76-1.19-1L236.83,71a3.11,3.11,0,0,1-2.44-3.08c0-1.73,1.56-3.27,4.09-3.27a6.27,6.27,0,0,1,4.25,1.57Z"/></g></svg>