<svg id="Layer_1" data-name="Layer 1" xmlns="http://www.w3.org/2000/svg" viewBox="0 0 580 84"><defs><style>.cls-1{fill:#ec6608;}.cls-2{fill:#1d1d1b;}.cls-3{fill:#00b2c3;}.cls-4{fill:#a2c62b;}.cls-5{fill:#ed7218;}.cls-6{fill:#272726;}</style></defs><title>header en md</title><g id="header_en_md" data-name="header en md"><g id="Stats_NZ_logo_small" data-name="Stats NZ logo small"><path class="cls-1" d="M88,68a7.94,7.94,0,1,0,7.88,8v-.07A7.91,7.91,0,0,0,88,68h0Zm-.39,11.24H86L84.19,75.8v3.43H82.81V73.51h1.74L86.2,76.9V73.54h1.37Zm5.55-4.48L90.23,78h2.88v1.27H88.37V78.08l2.95-3.29H88.45V73.52h4.68Z"/><path class="cls-2" d="M77.78,74.85a6,6,0,0,0-4-1.51c-2.4,0-3.89,1.49-3.89,3.12a3,3,0,0,0,2.32,3l1.7.52c.81.26,1.15.46,1.15,1s-.42.75-1.09.75a5,5,0,0,1-3-1.27l-1.51,2A6.44,6.44,0,0,0,73.87,84c2.74,0,4-1.71,4-3.2,0-1.33-.71-2.45-2.76-3.12l-1.66-.52c-.52-.18-.75-.41-.75-.77s.25-.67,1-.67a3.64,3.64,0,0,1,2.47,1ZM63.29,69.77v3.84H61.73V76h1.56v5.54c0,2,1.47,2.27,2.89,2.27.83,0,2.21-.14,2.21-.14V81.27s-.59.06-1.31.06c-.44,0-.94-.09-.94-.72V76h2.17V73.61H66.12V69.77Zm-18.19,0v3.84H43.54V76H45.1v5.54c0,2,1.46,2.27,2.89,2.27.83,0,2.21-.14,2.21-.14V81.27s-.59.06-1.31.06c-.45,0-1-.09-1-.72V76H50.1V73.61H47.92V69.77Zm-2.08.4A8,8,0,0,0,38,68c-2.71,0-5.11,1.64-5.11,4.35,0,2,1.29,3.35,3.35,4.34l1.08.52c1.46.68,2.4,1.27,2.4,2.33s-.81,1.69-2.12,1.69a5.63,5.63,0,0,1-3.74-1.83l-1.69,2.29A7.56,7.56,0,0,0,37.65,84C41,84,43,81.75,43,79.43s-1.51-3.63-3.91-4.76l-1.28-.59c-1.23-.58-1.66-1.13-1.66-1.83,0-.93.92-1.46,1.92-1.46a5.25,5.25,0,0,1,3.24,1.59Zm14.42,9.2v.75a1.73,1.73,0,0,1-1.94,1.77,1.26,1.26,0,0,1-1.42-1.2c0-.67.52-1.1,1.42-1.1h1.09a1.23,1.23,0,0,0,.87-.22m4.25,4.48V81.44h-.64c-.44,0-.77-.09-.77-.71V77.07c0-2.67-2.08-3.73-4.35-3.73a8.6,8.6,0,0,0-4.3,1.25l1.1,2.14a6.88,6.88,0,0,1,3-.93c1.09,0,1.66.47,1.66,1.19v.11c0,.37-.22.59-.7.59h-2c-2.24,0-3.64,1.2-3.64,3.12A3.28,3.28,0,0,0,54.63,84a3.37,3.37,0,0,0,2.8-1.2l.13-.18c.37,1.22,1.58,1.39,2.75,1.39a6.31,6.31,0,0,0,1.37-.14"/></g><g id="Columns"><rect class="cls-3" x="18" y="27" width="6" height="24" rx="3"/><rect class="cls-4" x="9" y="39" width="6" height="12" rx="3"/><rect class="cls-5" y="45" width="6" height="6" rx="3"/></g><path class="cls-6" d="M35.46,16.15H33.52V2.85H36.1l5.44,10.53V2.85h1.93v13.3H40.89L35.46,5.63Z"/><path class="cls-6" d="M54.42,7.58v9.25a2.43,2.43,0,0,1-2.7,2.63H48.13V17.9h3.31c.51,0,1.08-.14,1.08-.91V14.88a3.34,3.34,0,0,1-2.87,1.46,4.24,4.24,0,0,1-4.29-4.48,4.23,4.23,0,0,1,4.27-4.51,3.41,3.41,0,0,1,2.91,1.5c0-.18,0-.39,0-.66V7.58Zm-4.48,7.15a2.67,2.67,0,0,0,2.65-2.87,2.66,2.66,0,1,0-5.3,0A2.68,2.68,0,0,0,49.94,14.73Z"/><path class="cls-6" d="M61.58,10.39C61.58,9.48,60.9,9,59.8,9a4,4,0,0,0-2.42.91l-.89-1.41a5.35,5.35,0,0,1,3.44-1.16c2.26,0,3.55,1.26,3.55,3.08v5.72h-1.9v-.89a2.9,2.9,0,0,1-2.45,1.12c-2,0-3.1-1.12-3.1-2.7s1.18-2.62,3.1-2.62H61c.44,0,.61-.19.61-.53ZM57.4,4.31h5.3V5.89H57.4ZM61.58,13v-.75a1.48,1.48,0,0,1-.91.19H59.53c-1,0-1.52.44-1.52,1.16s.49,1.28,1.52,1.28A1.84,1.84,0,0,0,61.58,13Z"/><path class="cls-6" d="M78,2.85V4.6h-4V16.15h-2V4.6h-4V2.85Z"/><path class="cls-6" d="M77.24,13V7.58h1.9v5.21a2,2,0,0,0,4,0V7.58h1.88V13c0,1.81-1.43,3.35-3.9,3.35S77.24,14.84,77.24,13Zm1.25-8.72h5.3V5.89h-5.3Z"/><path class="cls-6" d="M89.57,4.12V7.58h2V9.14h-2V14c0,.59.44.7.87.7a8,8,0,0,0,1.16-.08v1.58s-.93.1-1.63.1c-1,0-2.3-.21-2.3-1.89V9.14H86.26V7.58h1.41V4.12Z"/><path class="cls-6" d="M97.19,7.35a4.52,4.52,0,1,1-4.56,4.51A4.46,4.46,0,0,1,97.19,7.35Zm0,1.66a2.65,2.65,0,0,0-2.64,2.85,2.65,2.65,0,1,0,5.28,0A2.65,2.65,0,0,0,97.19,9Z"/><path class="cls-6" d="M108.09,7.35a3,3,0,0,1,3.2,3.21v5.59H109.4V10.83A1.61,1.61,0,0,0,107.69,9a3.12,3.12,0,0,0-2.33,1.26v5.85h-1.88V2.85h1.88V7.7c0,.24,0,.78,0,1A3.64,3.64,0,0,1,108.09,7.35Z"/><path class="cls-6" d="M113.36,13V7.58h1.9v5.21a2,2,0,0,0,4,0V7.58h1.89V13c0,1.81-1.43,3.35-3.9,3.35S113.36,14.84,113.36,13Z"/><path class="cls-6" d="M137,16.15h-2.18L133.46,12h-4.41l-1.27,4.18h-2.09l4.39-13.3h2.45ZM131.29,4.9h0l-1.69,5.38H133Z"/><path class="cls-6" d="M142.18,7.35a4.52,4.52,0,1,1,0,9,4.46,4.46,0,0,1-4.56-4.52A4.44,4.44,0,0,1,142.18,7.35Zm0,1.66a2.65,2.65,0,0,0-2.64,2.85,2.65,2.65,0,1,0,5.28,0A2.65,2.65,0,0,0,142.18,9Z"/><path class="cls-6" d="M150.83,4.12V7.58h2V9.14h-2V14c0,.59.43.7.87.7a8.15,8.15,0,0,0,1.16-.08v1.58s-.93.1-1.64.1c-1,0-2.29-.21-2.29-1.89V9.14h-1.41V7.58h1.41V4.12Z"/><path class="cls-6" d="M162.66,12.45h-6.74a2.4,2.4,0,0,0,2.41,2.28,2.33,2.33,0,0,0,2-1l2.15,0a4.39,4.39,0,0,1-4.16,2.59,4.34,4.34,0,0,1-4.43-4.52,4.29,4.29,0,0,1,4.37-4.51c2.3,0,4.39,1.54,4.39,5.08Zm-6.74-1.39h4.61A2.22,2.22,0,0,0,158.29,9,2.34,2.34,0,0,0,155.92,11.06Z"/><path class="cls-6" d="M169.14,10.39c0-.91-.68-1.38-1.79-1.38a4,4,0,0,0-2.41.91l-.89-1.41a5.35,5.35,0,0,1,3.44-1.16c2.26,0,3.55,1.26,3.55,3.08v5.72h-1.9v-.89a2.9,2.9,0,0,1-2.45,1.12c-2,0-3.1-1.12-3.1-2.7s1.18-2.62,3.1-2.62h1.84c.44,0,.61-.19.61-.53Zm0,2.63v-.75a1.48,1.48,0,0,1-.91.19h-1.14c-1,0-1.52.44-1.52,1.16s.49,1.28,1.52,1.28A1.84,1.84,0,0,0,169.14,13Z"/><path class="cls-6" d="M178.13,9.25h-1c-1.22,0-2,.71-2,2.64v4.26h-1.88V7.58h1.84V9a2.31,2.31,0,0,1,2.37-1.52,4,4,0,0,1,.67.06Z"/><path class="cls-6" d="M183.39,7.35a4.52,4.52,0,1,1,0,9,4.46,4.46,0,0,1-4.56-4.52A4.44,4.44,0,0,1,183.39,7.35Zm0,1.66a2.65,2.65,0,0,0-2.64,2.85,2.65,2.65,0,1,0,5.28,0A2.65,2.65,0,0,0,183.39,9Z"/><path class="cls-6" d="M194.54,10.39c0-.91-.68-1.38-1.78-1.38a3.92,3.92,0,0,0-2.41.91l-.9-1.41a5.35,5.35,0,0,1,3.44-1.16c2.26,0,3.55,1.26,3.55,3.08v5.72h-1.9v-.89a2.89,2.89,0,0,1-2.45,1.12c-2,0-3.09-1.12-3.09-2.7s1.17-2.62,3.09-2.62h1.85c.43,0,.6-.19.6-.53Zm0,2.63v-.75a1.48,1.48,0,0,1-.91.19h-1.14c-1,0-1.52.44-1.52,1.16s.5,1.28,1.52,1.28A1.83,1.83,0,0,0,194.54,13Z"/><path class="cls-6" d="M204.75,7.15a2.19,2.19,0,1,1-2.19,2.18A2.18,2.18,0,0,1,204.75,7.15Z"/><path class="cls-6" d="M213.47,2.85h2v13.3h-2Z"/><path class="cls-6" d="M220,7.7c0,.24,0,.78,0,1a3.63,3.63,0,0,1,2.79-1.3,3,3,0,0,1,3.19,3.21v5.59H224V10.83A1.62,1.62,0,0,0,222.32,9,3.13,3.13,0,0,0,220,10.3v5.85H218.1V7.58H220Z"/><path class="cls-6" d="M234.73,14.9a3.31,3.31,0,0,1-2.87,1.48,4.28,4.28,0,0,1-4.31-4.52,4.23,4.23,0,0,1,4.27-4.51,3.47,3.47,0,0,1,3,1.5c0-.58,0-1.29,0-1.95V2.85h1.88v13.3h-1.9Zm-5.25-3a2.67,2.67,0,1,0,5.32,0,2.67,2.67,0,1,0-5.32,0Z"/><path class="cls-6" d="M239.33,9.14H238V7.58h3.18v8.57h-1.88Zm-.5-4.64a1.33,1.33,0,0,1,1.33-1.34,1.35,1.35,0,0,1,1.35,1.34,1.33,1.33,0,0,1-1.35,1.33A1.32,1.32,0,0,1,238.83,4.5Z"/><path class="cls-6" d="M247.48,14.73a2.41,2.41,0,0,0,2.18-1.26l1.64.84a4.31,4.31,0,0,1-3.82,2.07,4.41,4.41,0,0,1-4.54-4.5,4.42,4.42,0,0,1,4.54-4.53,4.31,4.31,0,0,1,3.82,2.07l-1.64.84A2.4,2.4,0,0,0,247.48,9a2.66,2.66,0,0,0-2.63,2.87A2.65,2.65,0,0,0,247.48,14.73Z"/><path class="cls-6" d="M257.76,10.39c0-.91-.69-1.38-1.79-1.38a3.92,3.92,0,0,0-2.41.91l-.9-1.41a5.37,5.37,0,0,1,3.44-1.16c2.26,0,3.56,1.26,3.56,3.08v5.72h-1.9v-.89a2.92,2.92,0,0,1-2.46,1.12c-2,0-3.09-1.12-3.09-2.7s1.18-2.62,3.09-2.62h1.85c.43,0,.61-.19.61-.53Zm0,2.63v-.75a1.54,1.54,0,0,1-.92.19H255.7c-1,0-1.52.44-1.52,1.16s.5,1.28,1.52,1.28A1.84,1.84,0,0,0,257.76,13Z"/><path class="cls-6" d="M264.22,4.12V7.58h2V9.14h-2V14c0,.59.43.7.87.7a8.15,8.15,0,0,0,1.16-.08v1.58s-.93.1-1.64.1c-1,0-2.29-.21-2.29-1.89V9.14h-1.41V7.58h1.41V4.12Z"/><path class="cls-6" d="M271.83,7.35a4.52,4.52,0,1,1-4.56,4.51A4.46,4.46,0,0,1,271.83,7.35Zm0,1.66a2.66,2.66,0,0,0-2.64,2.85,2.65,2.65,0,1,0,5.28,0A2.65,2.65,0,0,0,271.83,9Z"/><path class="cls-6" d="M283,9.25h-1c-1.22,0-2,.71-2,2.64v4.26h-1.88V7.58H280V9a2.31,2.31,0,0,1,2.37-1.52,4,4,0,0,1,.67.06Z"/><path class="cls-6" d="M288.59,13.76c0-.61-.49-.84-1.59-1.22l-.5-.17c-1.48-.51-2.43-1.16-2.43-2.53s1.33-2.49,3.21-2.49a4.89,4.89,0,0,1,3.27,1.18l-1,1.31a3.73,3.73,0,0,0-2.22-.91c-.7,0-1.27.32-1.27.82s.3.64,1.06.91l1,.36c1.71.61,2.45,1.44,2.45,2.72s-1.08,2.64-3.48,2.64a5.19,5.19,0,0,1-3.44-1.26l1-1.38a4.32,4.32,0,0,0,2.43,1.06C288.14,14.8,288.59,14.29,288.59,13.76Z"/><path class="cls-6" d="M305.94,16.15h-2.19L302.4,12H298l-1.28,4.18h-2.09L299,2.85h2.45ZM300.24,4.9h0l-1.69,5.38h3.38Z"/><path class="cls-6" d="M311.13,7.35a4.52,4.52,0,1,1,0,9,4.46,4.46,0,0,1-4.56-4.52A4.44,4.44,0,0,1,311.13,7.35Zm0,1.66a2.65,2.65,0,0,0-2.64,2.85,2.65,2.65,0,1,0,5.28,0A2.66,2.66,0,0,0,311.13,9Z"/><path class="cls-6" d="M319.77,4.12V7.58h2V9.14h-2V14c0,.59.44.7.88.7a7.91,7.91,0,0,0,1.15-.08v1.58s-.93.1-1.63.1c-1,0-2.3-.21-2.3-1.89V9.14h-1.4V7.58h1.4V4.12Z"/><path class="cls-6" d="M331.61,12.45h-6.75a2.41,2.41,0,0,0,2.42,2.28,2.36,2.36,0,0,0,2-1l2.15,0a4.39,4.39,0,0,1-4.16,2.59,4.34,4.34,0,0,1-4.43-4.52,4.29,4.29,0,0,1,4.37-4.51c2.3,0,4.39,1.54,4.39,5.08Zm-6.75-1.39h4.62A2.23,2.23,0,0,0,327.24,9,2.35,2.35,0,0,0,324.86,11.06Z"/><path class="cls-6" d="M338.09,10.39c0-.91-.69-1.38-1.79-1.38a3.92,3.92,0,0,0-2.41.91L333,8.51a5.32,5.32,0,0,1,3.43-1.16c2.26,0,3.56,1.26,3.56,3.08v5.72h-1.9v-.89a2.91,2.91,0,0,1-2.45,1.12c-2,0-3.1-1.12-3.1-2.7s1.18-2.62,3.1-2.62h1.84c.44,0,.61-.19.61-.53Zm0,2.63v-.75a1.5,1.5,0,0,1-.91.19H336c-1,0-1.52.44-1.52,1.16S335,14.9,336,14.9A1.84,1.84,0,0,0,338.09,13Z"/><path class="cls-6" d="M347.07,9.25h-1c-1.22,0-2,.71-2,2.64v4.26h-1.88V7.58H344V9a2.33,2.33,0,0,1,2.38-1.52,3.77,3.77,0,0,1,.66.06Z"/><path class="cls-6" d="M352.34,7.35a4.52,4.52,0,1,1-4.56,4.51A4.46,4.46,0,0,1,352.34,7.35Zm0,1.66a2.65,2.65,0,0,0-2.64,2.85,2.65,2.65,0,1,0,5.28,0A2.65,2.65,0,0,0,352.34,9Z"/><path class="cls-6" d="M363.49,10.39c0-.91-.68-1.38-1.79-1.38a4,4,0,0,0-2.41.91l-.89-1.41a5.35,5.35,0,0,1,3.44-1.16c2.26,0,3.55,1.26,3.55,3.08v5.72h-1.9v-.89A2.9,2.9,0,0,1,361,16.38c-2,0-3.1-1.12-3.1-2.7s1.18-2.62,3.1-2.62h1.84c.44,0,.61-.19.61-.53Zm0,2.63v-.75a1.5,1.5,0,0,1-.91.19h-1.14c-1,0-1.52.44-1.52,1.16s.49,1.28,1.52,1.28A1.84,1.84,0,0,0,363.49,13Z"/><path class="cls-6" d="M373.56,16.15h-1.94V2.85h2.59l5.43,10.53V2.85h1.94v13.3H379L373.56,5.63Z"/><path class="cls-6" d="M392.2,12.45h-6.75a2.41,2.41,0,0,0,2.42,2.28,2.36,2.36,0,0,0,2-1l2.15,0a4.39,4.39,0,0,1-4.16,2.59,4.34,4.34,0,0,1-4.43-4.52,4.29,4.29,0,0,1,4.37-4.51c2.3,0,4.39,1.54,4.39,5.08Zm-6.75-1.39h4.62A2.23,2.23,0,0,0,387.83,9,2.35,2.35,0,0,0,385.45,11.06Z"/><path class="cls-6" d="M402.25,14.19l1.63-6.61h2l-2.36,8.57h-2.37l-1.75-6.27-1.78,6.27H395.2L393,7.58h2.07l1.44,6.58,2-6.58h1.9Z"/><path class="cls-6" d="M410.27,4.6V2.85h10.07V4.56l-7.81,9.84h7.81v1.75H410.1V14.5l7.81-9.9Z"/><path class="cls-6" d="M430,12.45h-6.75a2.41,2.41,0,0,0,2.42,2.28,2.36,2.36,0,0,0,2-1l2.15,0a4.39,4.39,0,0,1-4.16,2.59,4.34,4.34,0,0,1-4.43-4.52,4.29,4.29,0,0,1,4.37-4.51c2.3,0,4.39,1.54,4.39,5.08Zm-6.75-1.39h4.62A2.23,2.23,0,0,0,425.66,9,2.35,2.35,0,0,0,423.28,11.06Z"/><path class="cls-6" d="M436.51,10.39c0-.91-.69-1.38-1.79-1.38a3.92,3.92,0,0,0-2.41.91l-.89-1.41a5.32,5.32,0,0,1,3.43-1.16c2.26,0,3.56,1.26,3.56,3.08v5.72h-1.9v-.89a2.91,2.91,0,0,1-2.45,1.12c-2,0-3.1-1.12-3.1-2.7s1.18-2.62,3.1-2.62h1.84c.44,0,.61-.19.61-.53Zm0,2.63v-.75a1.5,1.5,0,0,1-.91.19h-1.14c-1,0-1.52.44-1.52,1.16s.49,1.28,1.52,1.28A1.84,1.84,0,0,0,436.51,13Z"/><path class="cls-6" d="M442.49,16.15h-1.88V2.85h1.88Z"/><path class="cls-6" d="M449.65,10.39c0-.91-.68-1.38-1.78-1.38a3.92,3.92,0,0,0-2.41.91l-.9-1.41A5.37,5.37,0,0,1,448,7.35c2.26,0,3.55,1.26,3.55,3.08v5.72h-1.9v-.89a2.89,2.89,0,0,1-2.45,1.12c-1.95,0-3.09-1.12-3.09-2.7s1.18-2.62,3.09-2.62h1.85c.43,0,.6-.19.6-.53Zm0,2.63v-.75a1.48,1.48,0,0,1-.91.19H447.6c-1,0-1.52.44-1.52,1.16s.5,1.28,1.52,1.28A1.83,1.83,0,0,0,449.65,13Z"/><path class="cls-6" d="M455.6,7.7c0,.24,0,.78,0,1a3.63,3.63,0,0,1,2.8-1.3,3,3,0,0,1,3.19,3.21v5.59h-1.88V10.83A1.62,1.62,0,0,0,458,9a3.12,3.12,0,0,0-2.34,1.26v5.85h-1.88V7.58h1.84Z"/><path class="cls-6" d="M470.38,14.9a3.28,3.28,0,0,1-2.87,1.48,4.28,4.28,0,0,1-4.31-4.52,4.24,4.24,0,0,1,4.28-4.51,3.43,3.43,0,0,1,2.94,1.5c0-.58,0-1.29,0-1.95V2.85h1.88v13.3h-1.9Zm-5.24-3a2.67,2.67,0,1,0,5.32,0,2.67,2.67,0,1,0-5.32,0Z"/><path class="cls-6" d="M48.13,29.85,52,44.38h0l3.25-14.53h4.12l-5,20.3H49.78L46,35.56,42.21,50.15H37.54l-5-20.3h4.35L40,44.38h0l3.88-14.53Z"/><path class="cls-6" d="M73.56,44.61H63.67a3.15,3.15,0,0,0,5.71,1.31l3.92.4a7.12,7.12,0,0,1-13.6-2.81,6.73,6.73,0,0,1,6.9-7c3.65,0,7,2.38,7,7.94Zm-10-2.52h6a2.88,2.88,0,0,0-2.93-2.44A3,3,0,0,0,63.58,42.09Z"/><path class="cls-6" d="M79.68,50.15H75.94V29.85h3.74Z"/><path class="cls-6" d="M86.81,50.15H83.07V29.85h3.74Z"/><path class="cls-6" d="M94,50.15H90.2V29.85H94V36.4c0,.87,0,1.8,0,2.18a4.74,4.74,0,0,1,4.2-2.06c3.66,0,6.44,2.93,6.44,7s-2.81,7-6.47,7a4.8,4.8,0,0,1-4.12-2Zm-.08-6.64a3.4,3.4,0,1,0,6.78,0,3.4,3.4,0,1,0-6.78,0Z"/><path class="cls-6" d="M120.16,44.61h-9.89a3,3,0,0,0,3,2.67A3,3,0,0,0,116,45.92l3.91.4a7.12,7.12,0,0,1-13.6-2.81,6.73,6.73,0,0,1,6.9-7c3.66,0,7,2.38,7,7.94Zm-10-2.52h5.95a2.87,2.87,0,0,0-2.93-2.44A3,3,0,0,0,110.18,42.09Z"/><path class="cls-6" d="M127.09,50.15h-3.77V40.06h-1.86v-3.2h5.63ZM125,29.85a2.43,2.43,0,0,1,2.44,2.43,2.43,2.43,0,0,1-4.85,0A2.43,2.43,0,0,1,125,29.85Z"/><path class="cls-6" d="M138.17,36.52a4.62,4.62,0,0,1,4.93,4.93v8.7h-3.77V42.41A2.14,2.14,0,0,0,137.07,40a3.72,3.72,0,0,0-2.82,1.5v8.62h-3.77V36.86h3.69v.53c0,.46-.06,1-.06,1A5.2,5.2,0,0,1,138.17,36.52Z"/><path class="cls-6" d="M159.81,36.86V51.14c0,2.08-1.05,4.09-4.27,4.09h-5.77V52h4.84c.67,0,1.42-.18,1.42-1.19V48.29a4.83,4.83,0,0,1-4.11,2c-3.6,0-6.39-2.72-6.39-6.87s2.76-6.9,6.36-6.9a4.77,4.77,0,0,1,4.2,2.06c0-.15-.06-.41-.06-1.11v-.61Zm-7.05,10.19a3.33,3.33,0,0,0,3.36-3.63,3.36,3.36,0,1,0-6.7,0A3.33,3.33,0,0,0,152.76,47.05Z"/><path class="cls-6" d="M178.92,48.47a4.89,4.89,0,0,1-4.15,2c-3.66,0-6.44-2.93-6.44-7s2.75-7,6.41-7A4.79,4.79,0,0,1,179,38.58c0-.44-.05-1.54-.05-2.53v-6.2h3.77v20.3h-3.77Zm-6.71-5a3.4,3.4,0,1,0,6.79,0,3.4,3.4,0,1,0-6.79,0Z"/><path class="cls-6" d="M193.44,41.3c0-.95-.75-1.56-2.2-1.56a9,9,0,0,0-4,1.24l-1.48-2.84a11.36,11.36,0,0,1,5.68-1.62c3,0,5.77,1.39,5.77,4.9v8.73h-3.77V48.9a4.45,4.45,0,0,1-3.71,1.6,4.36,4.36,0,0,1-4.64-4.18c0-2.52,1.86-4.09,4.81-4.09h2.62c.63,0,.92-.29.92-.78Zm0,4.09v-1a1.63,1.63,0,0,1-1.16.29h-1.42c-1.19,0-1.88.52-1.88,1.45s.72,1.56,1.88,1.56A2.29,2.29,0,0,0,193.44,45.39Z"/><path class="cls-6" d="M205.22,31.82v5h2.87v3.2h-2.87v6c0,.84.66,1,1.24,1a16.94,16.94,0,0,0,1.74-.09v3.22s-1.82.17-2.93.17c-1.88,0-3.82-.32-3.82-3V40.06h-2.09v-3.2h2.09v-5Z"/><path class="cls-6" d="M218.21,41.3c0-.95-.76-1.56-2.21-1.56A9,9,0,0,0,212,41l-1.48-2.84a11.42,11.42,0,0,1,5.69-1.62c3,0,5.77,1.39,5.77,4.9v8.73h-3.77V48.9a4.47,4.47,0,0,1-3.71,1.6,4.36,4.36,0,0,1-4.65-4.18c0-2.52,1.86-4.09,4.82-4.09h2.61c.64,0,.93-.29.93-.78Zm0,4.09v-1a1.65,1.65,0,0,1-1.16.29h-1.42c-1.19,0-1.89.52-1.89,1.45s.73,1.56,1.89,1.56A2.3,2.3,0,0,0,218.21,45.39Z"/><path class="cls-6" d="M232.07,33.09c0-2.61,1.74-3.51,3.77-3.51,1,0,2.76.18,2.76.18v3.45s-1.16-.15-1.57-.15c-.73,0-1.19.18-1.19,1.11v2.69h2.55v3.2h-2.55V50.15h-3.77V40.06H230v-3.2h2.09Z"/><path class="cls-6" d="M239.7,43.51a7.11,7.11,0,1,1,7.1,7A6.91,6.91,0,0,1,239.7,43.51Zm3.77,0a3.33,3.33,0,1,0,6.64,0,3.33,3.33,0,1,0-6.64,0Z"/><path class="cls-6" d="M264.61,40.58H263c-1.91,0-2.78.9-2.78,3.22v6.35h-3.77V36.86h3.65V39a3.5,3.5,0,0,1,3.45-2.29,4.18,4.18,0,0,1,1.05.12Z"/><path class="cls-6" d="M276.76,50.15h-4V29.85h5.31l6.85,13.51V29.85h4v20.3H284l-7.25-14.1Z"/><path class="cls-6" d="M305.47,44.61h-9.89a3.15,3.15,0,0,0,5.71,1.31l3.92.4a7.12,7.12,0,0,1-13.6-2.81,6.73,6.73,0,0,1,6.9-7c3.65,0,7,2.38,7,7.94Zm-10-2.52h5.95a2.88,2.88,0,0,0-2.93-2.44A3,3,0,0,0,295.49,42.09Z"/><path class="cls-6" d="M321,45.51l2-8.65h3.88l-3.45,13.29H319l-2.32-8.3-2.37,8.3h-4.44L306.6,36.86h4.06l1.77,8.53,2.46-8.53h3.69Z"/><path class="cls-6" d="M334.12,33.44V29.85h16.1V33.3L339.08,46.58h11.14v3.57H333.89V46.84l11.25-13.4Z"/><path class="cls-6" d="M365.65,44.61h-9.9a3.16,3.16,0,0,0,5.72,1.31l3.91.4a7.12,7.12,0,0,1-13.6-2.81,6.73,6.73,0,0,1,6.9-7c3.66,0,7,2.38,7,7.94Zm-10-2.52h5.94a2.87,2.87,0,0,0-2.93-2.44A3,3,0,0,0,355.67,42.09Z"/><path class="cls-6" d="M375.39,41.3c0-.95-.76-1.56-2.21-1.56a9,9,0,0,0-4,1.24l-1.48-2.84a11.42,11.42,0,0,1,5.69-1.62c3,0,5.77,1.39,5.77,4.9v8.73h-3.77V48.9a4.48,4.48,0,0,1-3.72,1.6A4.36,4.36,0,0,1,367,46.32c0-2.52,1.86-4.09,4.82-4.09h2.61c.64,0,.93-.29.93-.78Zm0,4.09v-1a1.65,1.65,0,0,1-1.16.29h-1.42c-1.19,0-1.89.52-1.89,1.45s.73,1.56,1.89,1.56A2.3,2.3,0,0,0,375.39,45.39Z"/><path class="cls-6" d="M386.15,50.15H382.4V29.85h3.75Z"/><path class="cls-6" d="M396.91,41.3c0-.95-.76-1.56-2.21-1.56a9,9,0,0,0-4,1.24l-1.48-2.84a11.36,11.36,0,0,1,5.68-1.62c3,0,5.78,1.39,5.78,4.9v8.73h-3.77V48.9a4.48,4.48,0,0,1-3.72,1.6,4.36,4.36,0,0,1-4.64-4.18c0-2.52,1.86-4.09,4.82-4.09H396c.64,0,.93-.29.93-.78Zm0,4.09v-1a1.66,1.66,0,0,1-1.16.29h-1.43c-1.19,0-1.88.52-1.88,1.45s.72,1.56,1.88,1.56A2.3,2.3,0,0,0,396.91,45.39Z"/><path class="cls-6" d="M411.61,36.52a4.62,4.62,0,0,1,4.93,4.93v8.7h-3.77V42.41A2.14,2.14,0,0,0,410.51,40a3.71,3.71,0,0,0-2.82,1.5v8.62h-3.77V36.86h3.69v.53c0,.46-.06,1-.06,1A5.2,5.2,0,0,1,411.61,36.52Z"/><path class="cls-6" d="M429.56,48.47a4.87,4.87,0,0,1-4.15,2c-3.65,0-6.44-2.93-6.44-7s2.76-7,6.41-7a4.82,4.82,0,0,1,4.24,2.06c0-.44-.06-1.54-.06-2.53v-6.2h3.77v20.3h-3.77Zm-6.7-5a3.4,3.4,0,1,0,3.39-3.63A3.4,3.4,0,0,0,422.86,43.51Z"/><path class="cls-6" d="M449.74,44.61h-9.89a3.16,3.16,0,0,0,5.72,1.31l3.91.4a7.12,7.12,0,0,1-13.6-2.81,6.73,6.73,0,0,1,6.9-7c3.66,0,7,2.38,7,7.94Zm-10-2.52h5.94a2.87,2.87,0,0,0-2.93-2.44A3,3,0,0,0,439.77,42.09Z"/><path class="cls-6" d="M460.27,40.58h-1.6c-1.91,0-2.78.9-2.78,3.22v6.35h-3.77V36.86h3.65V39a3.51,3.51,0,0,1,3.46-2.29,4.15,4.15,0,0,1,1,.12Z"/><path class="cls-6" d="M470.36,40.93a4.82,4.82,0,0,0-3.28-1.37c-1,0-1.33.5-1.33.9s.29.78,1,1l2.2.69c2.73.9,3.66,2.38,3.66,4.12,0,2-1.66,4.21-5.28,4.21a8.55,8.55,0,0,1-5.86-2.09l2-2.61a6.57,6.57,0,0,0,3.91,1.65c.9,0,1.45-.46,1.45-1s-.43-1-1.5-1.28l-2.27-.67A3.92,3.92,0,0,1,462,40.64c0-2.18,2-4.12,5.16-4.12a7.93,7.93,0,0,1,5.37,2Z"/></g></svg>