<svg version="1.2" xmlns="http://www.w3.org/2000/svg" xmlns:xlink="http://www.w3.org/1999/xlink" overflow="visible" preserveAspectRatio="none" viewBox="0 0 331 36" xml:space="preserve" y="0px" x="0px" id="Layer_1_1560479552851" width="276" height="29"><g transform="translate(1, 1)"><style type="text/css">
	.st0_1560479552851{fill:#FFFFFF;}
</style><g>
	<path d="M2.4,31.9c0,0,40.9-4.6,79.6-4.6c39.5,0,80.7,4.6,80.7,4.6v1.6c0,0-41.4-4.4-80.6-4.4   c-38.7,0-79.6,4.4-79.6,4.4V31.9L2.4,31.9z M18.1,24.4h-3.5L8.4,11.8C7.2,9.4,5.9,6.7,5.5,5.4l-0.2,0c0.2,2,0.2,4.4,0.3,6.6   l0.1,12.4H4.4c-1.5,0-2-1.4-2-3.1V0.8h3.8l6.6,13c1,1.9,2.2,5,2.3,5.6l0.2-0.1c-0.1-0.7-0.3-4.4-0.3-7L14.9,0.8h3.2V24.4L18.1,24.4   z M76.7,21.9l-0.8,2.7H61.8v-2.5l9.5-15c0.5-0.9,1.2-1.8,1.7-2.4c-0.7,0.1-1.5,0.1-2.7,0.1h-8.1L63,2h13.5v2.6l-9.4,15   c-0.5,0.9-1.1,1.6-1.5,2.3c0.7,0,1.5,0,2.4,0H76.7L76.7,21.9z M184.9,22.5c-1.9,1.2-4.5,1.9-7,1.9c-3.1,0-5.6-1.1-7.5-3.2   c-1.9-2.2-2.7-5-2.7-8.8c0-3.3,1.4-7,4.1-9.2c1.7-1.4,3.6-2,5.9-2c2.6,0,4.8,0.8,6.7,2.4l-1.6,2.1c-1.7-1.3-3.2-1.8-5-1.8   c-2.3,0-3.9,0.9-5.1,3c-0.8,1.5-1.3,3-1.3,5.8c0,3.2,0.6,5.7,1.7,7.1c1,1.3,3,2.1,5.1,2.1c1.3,0,2.5-0.3,3.5-0.9v-6.7h-4.3   l-0.5-2.7h8.1V22.5L184.9,22.5z M202,15.7c0,5.4-2.9,8.9-7.5,8.9c-4.6,0-7.4-3.5-7.4-9.1c0-5.5,2.8-9,7.4-9   C199.6,6.5,202,10.5,202,15.7L202,15.7z M198.5,15.8c0-5.3-1.5-6.9-4-6.9c-2.7,0-3.9,2-3.9,6.3c0,5.2,1.3,7,4,7   C197,22.1,198.5,20.3,198.5,15.8L198.5,15.8z M217.8,6.9l-6.3,17.3h-2.9L202.4,7l3.2-0.5l3.4,10.4c0.4,1.2,0.8,2.5,1,3.7   c0.3-1,0.6-2.4,1.1-3.8l3.2-9.9H217.8L217.8,6.9z M232.1,16.2h-10.4v0.4c0,1.5,0.2,2.6,0.7,3.4c0.9,1.4,2.3,2,3.9,2   c1.6,0,3-0.5,4.2-1.6l1.2,1.9c-1.7,1.5-3.7,2.2-5.9,2.2c-4.8,0-7.7-3.5-7.7-9.1c0-3,0.6-4.9,2.1-6.6c1.4-1.6,3-2.4,5.2-2.4   c1.9,0,3.5,0.6,4.7,1.8c1.5,1.5,2.1,3.5,2.1,7.4V16.2L232.1,16.2z M228.8,13.8c0-1.6-0.4-3-1.1-3.9c-0.5-0.7-1.4-1.2-2.5-1.2   c-2.4,0-3.6,2-3.6,5.1H228.8L228.8,13.8z M243.5,6.6l-1.1,3.1c-0.3-0.1-0.5-0.2-0.9-0.2c-1.9,0-3.6,1.6-3.6,3.5v11h-3.1V11.5   c0-2.1-0.2-3.2-0.6-4.3l3-0.8c0.3,0.7,0.6,1.8,0.6,2.6v0.3c1.4-2,2.8-3,4.7-3C242.9,6.4,243.2,6.5,243.5,6.6L243.5,6.6z    M258.5,24.1h-3.1V12.5c0-1.5-0.1-2.1-0.5-2.6c-0.3-0.4-1-0.7-1.7-0.7c-1.2,0-3.1,1-4.2,2.2v12.7h-3.1V11.3c0-2.1-0.2-2.8-0.6-4.1   l3-0.8c0.4,0.8,0.6,1.6,0.6,2.6c1-0.8,1.5-1.3,2.2-1.7c1-0.6,2.1-0.9,3.2-0.9c1.8,0,3.4,1,4,2.4c0.3,0.6,0.4,1.4,0.4,2.2V24.1   L258.5,24.1z M283.2,24.1H280V11.8c0-1.9-0.6-2.6-2.1-2.6c-1.6,0-2.7,1-4,2.3v12.6h-3.1V11.9c0-1.9-0.5-2.6-2.1-2.6   c-1.2,0-2.5,0.6-3.9,2v12.9h-3.1V11.5c0-2.4-0.1-3.1-0.6-4.3l2.9-0.7c0.3,0.6,0.6,1.4,0.6,2.4c1.5-1.5,3.2-2.4,4.8-2.4   c1.6,0,3.2,0.9,4.1,2.7c1.7-1.8,3.5-2.7,5.2-2.7c2.7,0,4.4,1.7,4.4,4.8V24.1L283.2,24.1z M299.5,16.2h-10.4v0.4   c0,1.5,0.2,2.6,0.7,3.4c0.9,1.4,2.3,2,3.9,2c1.6,0,3-0.5,4.2-1.6l1.2,1.9c-1.7,1.5-3.7,2.2-5.9,2.2c-4.8,0-7.7-3.5-7.7-9.1   c0-3,0.6-4.9,2.1-6.6c1.4-1.6,3-2.4,5.2-2.4c1.9,0,3.5,0.6,4.7,1.8c1.5,1.5,2.1,3.5,2.1,7.4V16.2L299.5,16.2z M296.3,13.8   c0-1.6-0.4-3-1.1-3.9c-0.5-0.7-1.4-1.2-2.5-1.2c-2.4,0-3.6,2-3.6,5.1H296.3L296.3,13.8z M315,24.1h-3.1V12.5c0-1.5-0.1-2.1-0.5-2.6   c-0.3-0.4-1-0.7-1.7-0.7c-1.2,0-3.1,1-4.2,2.2v12.7h-3.1V11.3c0-2.1-0.2-2.8-0.6-4.1l3-0.8c0.4,0.8,0.6,1.6,0.6,2.6   c1-0.8,1.5-1.3,2.2-1.7c1-0.6,2.1-0.9,3.2-0.9c1.8,0,3.4,1,4,2.4c0.3,0.6,0.4,1.4,0.4,2.2V24.1L315,24.1z M326.6,6.9l-0.9,2.2h-3.4   v10.3c0,2.1,0.5,2.8,2.2,2.8c0.6,0,1.1-0.1,1.6-0.3l0.4,1.9c-1,0.5-2,0.7-3.1,0.7c-1.1,0-2.4-0.3-2.9-0.9c-0.7-0.6-1.3-1-1.3-3.5   v-11h-2.1V6.9h2.1c0-1.3,0-3.1,0.2-4.4l3.2-0.8c-0.1,1.2-0.3,3.4-0.3,5.1H326.6L326.6,6.9z M34.4,16.2H24v0.4   c0,1.5,0.2,2.6,0.7,3.4c0.9,1.4,2.3,2,4,2c1.6,0,3-0.6,4.2-1.7l1.2,1.9c-1.7,1.5-3.7,2.2-5.9,2.2c-4.8,0-7.7-3.5-7.7-9.1   c0-3,0.6-4.9,2.1-6.7c1.4-1.6,3.1-2.4,5.2-2.4c1.9,0,3.5,0.6,4.7,1.9c1.5,1.5,2.1,3.5,2.1,7.4V16.2L34.4,16.2z M31.1,13.8   c0-1.7-0.4-3-1.1-3.9c-0.6-0.7-1.4-1.2-2.5-1.2c-2.4,0-3.6,2-3.6,5.1H31.1L31.1,13.8z M58.2,6.9l-4.8,17.4h-3.1l-2.5-9.4   c-0.3-1.2-1.1-4.1-1.1-4.1h-0.1c0,0-0.7,2.9-0.9,3.8l-2.6,9.6h-3L35.4,7l3.2-0.5l2.2,9.7c0.4,1.7,0.9,4.2,0.9,4.2h0.1   c0,0,0.4-2.4,0.8-3.9l2.6-9.6h3.3l2.4,9.3c0.5,1.9,1,4,1,4.2H52c0-0.2,0.5-3,0.8-4.1l2.1-9.4H58.2L58.2,6.9z M90.3,16.2H79.8v0.4   c0,1.5,0.2,2.6,0.7,3.4c0.9,1.4,2.3,2,4,2c1.6,0,3-0.6,4.2-1.7l1.2,1.9c-1.7,1.5-3.7,2.2-5.9,2.2c-4.8,0-7.7-3.5-7.7-9.1   c0-3,0.6-4.9,2.1-6.7c1.4-1.6,3.1-2.4,5.2-2.4c1.9,0,3.5,0.6,4.7,1.9c1.5,1.5,2.1,3.5,2.1,7.4V16.2L90.3,16.2z M87,13.8   c0-1.7-0.4-3-1.1-3.9c-0.6-0.7-1.4-1.2-2.5-1.2c-2.4,0-3.6,2-3.6,5.1H87L87,13.8z M106.5,22.7l-1.6,2.1c-1.1-0.4-1.9-1.3-2.3-2.5   c-0.4,0.5-1.9,2.3-4.9,2.3c-3.4,0-5.6-1.8-5.6-5.1c0-4,3.2-6.1,8.8-6.1c0.4,0,0.8,0,1.2,0v-1.1c0-2-0.3-3.4-2.7-3.4   c-1.8,0-3.9,0.9-5.3,2l-1.4-2.3c1.7-1,3.9-2.3,7.2-2.3c2.5,0,4.3,0.9,5,2.7c0.3,0.8,0.3,1.3,0.3,3c0,1.2-0.1,3.9-0.1,6.4   C105.1,20.9,105.2,21.9,106.5,22.7L106.5,22.7z M102,15.7c-0.5,0-0.8-0.1-1-0.1c-2.4,0-3.8,0.4-4.5,1.2c-0.7,0.8-0.9,1.4-0.9,2.5   c0,1.9,1,3,2.7,3c1.4,0,2.8-0.9,3.6-2.3L102,15.7L102,15.7z M114.1,24.1c-0.7,0.3-1.2,0.4-2,0.4c-1.2,0-2-0.4-2.7-1.3   c-0.5-0.7-0.7-1.3-0.7-3v-14c0-2.4-0.1-3.6-0.4-4.9l3.3-0.7c0.3,1.1,0.3,2.8,0.3,4.9v13.9c0,1.8,0.1,2.2,0.4,2.5   c0.2,0.2,0.7,0.3,1.1,0.2L114.1,24.1L114.1,24.1z M129.8,22.7l-1.6,2.1c-1.1-0.4-1.9-1.3-2.3-2.5c-0.4,0.5-1.9,2.3-4.9,2.3   c-3.4,0-5.6-1.8-5.6-5.1c0-4,3.2-6.1,8.8-6.1c0.4,0,0.8,0,1.2,0v-1.1c0-2-0.3-3.4-2.7-3.4c-1.8,0-3.9,0.9-5.3,2l-1.4-2.3   c1.7-1,3.9-2.3,7.2-2.3c2.5,0,4.3,0.9,5,2.7c0.3,0.8,0.3,1.3,0.3,3c0,1.2-0.1,3.9-0.1,6.4C128.3,20.9,128.4,21.9,129.8,22.7   L129.8,22.7z M125.3,15.7c-0.5,0-0.8-0.1-1-0.1c-2.4,0-3.8,0.4-4.5,1.2c-0.7,0.8-0.9,1.4-0.9,2.5c0,1.9,1,3,2.7,3   c1.4,0,2.8-0.9,3.6-2.3L125.3,15.7L125.3,15.7z M162,24.1h-3c-0.2-0.5-0.2-0.8-0.3-1.6c-1.2,1.3-2.6,1.9-4.4,1.9   c-4.4,0-7-3.3-7-8.7c0-3.7,1.3-6.6,3.6-8.1c1.1-0.7,2.1-1,3.4-1c1.7,0,3,0.6,4.2,2c0-0.5-0.1-3.1-0.1-4.3V0.7l3.2,0.5v17.1   C161.6,21.1,161.7,23,162,24.1L162,24.1z M158.4,19.7v-9c-0.9-1.1-2-1.6-3.6-1.6c-1.3,0-2.3,0.7-3,1.8c-0.7,1.1-0.9,2.5-0.9,4.7   c0,3.3,0.4,4.3,1.3,5.2c0.6,0.6,1.4,0.9,2.5,0.9C156.5,21.7,157.8,20.8,158.4,19.7L158.4,19.7z M144.6,24.1h-3.1V12.5   c0-1.5-0.1-2.1-0.6-2.6c-0.3-0.4-1-0.7-1.8-0.7c-1.2,0-3.1,1-4.3,2.2v12.8h-1.6c-1,0-1.5-0.8-1.5-1.9V11.3c0-2.1-0.2-2.9-0.7-4.1   l3-0.8c0.4,0.8,0.6,1.6,0.6,2.6c1-0.8,1.5-1.3,2.2-1.7c1-0.6,2.1-0.9,3.2-0.9c1.8,0,3.4,1,4.1,2.4c0.3,0.6,0.4,1.4,0.4,2.2V24.1   L144.6,24.1z" class="st0_1560479552851" vector-effect="non-scaling-stroke"/>
</g></g></svg>